<?xml version="1.0" standalone="no"?>
<!DOCTYPE svg PUBLIC "-//W3C//DTD SVG 1.1//EN" "http://www.w3.org/Graphics/SVG/1.1/DTD/svg11.dtd" >
<svg xmlns="http://www.w3.org/2000/svg" xmlns:xlink="http://www.w3.org/1999/xlink" version="1.1">
<metadata>
Created by FontForge 20170731 at Sat Sep 16 19:41:26 2006
 By Aleksey,,,
(c) Copyright 2006 Berthold LLC. All Rights Reserved. This font software computer program is the property of Berthold. You may not reproduce, modify, adapt, translate, alter nor create derivative works of the font software. You may not reverse engineer, decompile, decrypt, disassemble, nor seek to discover the source code of the font software.
</metadata>
<defs>
<font id="Cosmos-ExtraBold" horiz-adv-x="688" >
  <font-face 
    font-family="Cosmos ExtraBold"
    font-weight="800"
    font-stretch="normal"
    units-per-em="1000"
    panose-1="2 0 5 3 6 0 0 2 0 4"
    ascent="750"
    descent="-250"
    x-height="547"
    cap-height="706"
    bbox="-142 -266 1412 943"
    underline-thickness="50"
    underline-position="-200"
    unicode-range="U+0020-FB02"
  />
<missing-glyph horiz-adv-x="500" 
d="M0 0v706h500v-706h-500zM250 401l170 255h-340zM280 353l170 -258v516zM80 50h340l-170 258zM50 611v-516l170 258z" />
    <glyph glyph-name="fi" unicode="fi" horiz-adv-x="708" 
d="M656 0h-230v500h230v-500zM404 701l-27 -67q-16 4 -23 4q-63 0 -63 -104v-34h90v-129h-90v-371h-229v371h-63v129h63q2 64 12 94q24 66 82.5 100.5t131.5 34.5q71 0 116 -28zM417 651q0 32 32.5 63t91.5 31t92 -31t33 -63q0 -33 -33 -64t-92 -31q-53 0 -88.5 28.5
t-35.5 66.5z" />
    <glyph glyph-name="fl" unicode="fl" horiz-adv-x="708" 
d="M656 0h-230v706h230v-706zM404 701l-27 -67q-16 4 -23 4q-63 0 -63 -104v-34h90v-129h-90v-371h-229v371h-63v129h63q0 58 12 94q24 66 82 100.5t132 34.5q71 0 116 -28z" />
    <glyph glyph-name=".notdef" horiz-adv-x="500" 
d="M0 0v706h500v-706h-500zM250 401l170 255h-340zM280 353l170 -258v516zM80 50h340l-170 258zM50 611v-516l170 258z" />
    <glyph glyph-name=".null" horiz-adv-x="0" 
 />
    <glyph glyph-name="nonmarkingreturn" horiz-adv-x="333" 
 />
    <glyph glyph-name="space" unicode=" " horiz-adv-x="292" 
 />
    <glyph glyph-name="exclam" unicode="!" horiz-adv-x="333" 
d="M62 706h236v-112q0 -109 -13.5 -181.5t-58.5 -149.5h-99q-41 87 -53 146.5t-12 163.5v133zM302 81q0 -33 -31.5 -66.5t-90.5 -33.5q-56 0 -89.5 31.5t-33.5 68.5q0 36 33.5 68.5t89.5 32.5q53 0 87.5 -31.5t34.5 -69.5z" />
    <glyph glyph-name="quotedbl" unicode="&#x22;" horiz-adv-x="377" 
d="M18 743h148l-47 -308h-53zM210 743h149l-47 -308h-53z" />
    <glyph glyph-name="numbersign" unicode="#" horiz-adv-x="670" 
d="M485 186l-26 -187h-125l26 187h-99l-26 -187h-124l25 187h-105v123h123l13 96h-111v124h128l25 176h125l-26 -176h100l24 176h125l-24 -176h106v-124h-124l-12 -96h113v-123h-131zM278 309h99l14 96h-100z" />
    <glyph glyph-name="dollar" unicode="$" horiz-adv-x="646" 
d="M383 817v-106q158 -22 227 -141l-97 -62q-16 21 -27.5 33t-42.5 26.5t-70 14.5q-40 0 -70 -16.5t-30 -53.5q0 -31 29 -46t116 -33q104 -22 159 -66.5t55 -136.5q0 -97 -72.5 -156.5t-176.5 -73.5v-113h-101v108q-108 4 -178.5 54t-96.5 111l97 61q21 -28 38.5 -45.5
t53.5 -33.5t81 -16q50 0 77 21.5t27 50.5q0 17 -6.5 28.5t-35 26t-81.5 23.5q-51 9 -90 22.5t-73.5 37t-52.5 60.5t-18 87q0 100 75.5 162t182.5 66v106h101z" />
    <glyph glyph-name="percent" unicode="%" horiz-adv-x="1000" 
d="M701 706l-278 -706h-131l278 706h131zM410 485q0 -234 -193 -234q-102 0 -149.5 61.5t-47.5 169.5q0 72 16 122t45.5 75.5t62 36t74.5 10.5q192 0 192 -241zM265 479q0 97 -11.5 128t-38.5 31t-38.5 -36.5t-11.5 -125.5q0 -79 10 -108.5t40 -29.5t40 32.5t10 108.5z
M972 221q0 -234 -193 -234q-102 0 -149.5 61.5t-47.5 169.5q0 72 16 122t45.5 75.5t62 36t74.5 10.5q192 0 192 -241zM828 215q0 97 -11.5 128t-38.5 31t-38.5 -36.5t-11.5 -125.5q0 -79 10 -108.5t40 -29.5t40 32.5t10 108.5z" />
    <glyph glyph-name="ampersand" unicode="&#x26;" horiz-adv-x="729" 
d="M743 61l-39 -73q-55 8 -92 22t-96 46q-87 -75 -236 -75q-76 0 -134.5 20.5t-91 54.5t-48 71.5t-15.5 77.5q0 74 45.5 124.5t116.5 66.5q-25 53 -25 102q0 89 65.5 136t158.5 47q80 0 142.5 -44.5t62.5 -121.5q0 -55 -37.5 -98t-101.5 -59q31 -34 98 -96q16 43 24 81
l96 -11q-4 -64 -34 -150q64 -58 141 -121zM333 441q35 7 59.5 27t24.5 51q0 26 -18 42.5t-44 16.5q-25 0 -42 -16.5t-17 -41.5q0 -8 2 -16t3.5 -13t6.5 -13.5t7 -11.5t9.5 -13t8.5 -12zM405 130q-110 86 -177 159q-12 -9 -19.5 -27t-7.5 -34q0 -41 37.5 -80t90.5 -39
q34 0 76 21z" />
    <glyph glyph-name="quotesingle" unicode="'" horiz-adv-x="184" 
d="M18 743h148l-47 -308h-53z" />
    <glyph glyph-name="parenleft" unicode="(" horiz-adv-x="354" 
d="M220 706h129q-54 -89 -79.5 -172.5t-25.5 -183.5q0 -194 101 -350h-132q-81 58 -128 153t-47 196q0 109 47.5 202t134.5 155z" />
    <glyph glyph-name="parenright" unicode=")" horiz-adv-x="354" 
d="M10 706h132q81 -58 128 -153t47 -196q0 -105 -48.5 -201t-133.5 -156h-129q105 172 105 357q0 186 -101 349z" />
    <glyph glyph-name="asterisk" unicode="*" horiz-adv-x="417" 
d="M406 531l-93 -32l58 -77q-39 -57 -100 -76l-61 82l-62 -82q-33 10 -55 26.5t-45 46.5l58 81l-96 33q0 66 40 120l95 -31v99q33 11 65 11q29 0 62 -11v-102l94 32q36 -52 40 -120z" />
    <glyph glyph-name="plus" unicode="+" horiz-adv-x="724" 
d="M470 64h-216v194h-163v153h163v189h216v-189h163v-153h-163v-194z" />
    <glyph glyph-name="comma" unicode="," horiz-adv-x="313" 
d="M276 164l-210 -354l-85 21l72 333h223z" />
    <glyph glyph-name="hyphen" unicode="-" horiz-adv-x="351" 
d="M25 355h301v-131h-301v131z" />
    <glyph glyph-name="period" unicode="." horiz-adv-x="313" 
d="M30 82q0 37 33.5 69.5t92.5 32.5q58 0 91.5 -33t33.5 -69t-33.5 -68.5t-91.5 -32.5q-60 0 -93 33.5t-33 67.5z" />
    <glyph glyph-name="slash" unicode="/" horiz-adv-x="458" 
d="M469 706l-307 -706h-174l307 706h174z" />
    <glyph glyph-name="zero" unicode="0" 
d="M651 349q0 -45 -4.5 -84t-15.5 -83.5t-33.5 -79t-55 -63.5t-84 -44.5t-116.5 -15.5q-162 0 -235.5 99.5t-73.5 273.5q0 380 313 380q305 0 305 -383zM423 344q0 141 -17 194.5t-62 53.5q-49 0 -65 -61t-16 -180q0 -131 16 -183t62 -52q48 0 65 49.5t17 178.5z" />
    <glyph glyph-name="one" unicode="1" 
d="M479 0h-236v500l-115 -41l-33 77l289 170h95v-706z" />
    <glyph glyph-name="two" unicode="2" 
d="M625 0h-585v82l234 278q87 102 87 146q0 37 -29 59t-66 22q-78 0 -125 -90l-101 48q31 89 107 140.5t190 51.5q109 0 192 -59.5t83 -164.5q0 -133 -166 -281l-102 -91h281v-141z" />
    <glyph glyph-name="three" unicode="3" 
d="M224 306v113h8q51 0 84 18q47 26 47 72q0 31 -25.5 55.5t-71.5 24.5q-33 0 -63 -19t-43 -36t-22 -34l-102 52q36 89 115 139t181 50q60 0 116 -19t98 -64t42 -108q0 -70 -44.5 -112t-96.5 -56q76 -12 127 -62.5t51 -123.5q0 -96 -81.5 -159t-224.5 -63q-247 0 -306 209
l104 42q41 -106 148 -106q44 0 79 25t35 68q0 49 -45 74q-35 20 -110 20z" />
    <glyph glyph-name="four" unicode="4" 
d="M658 140h-101v-140h-218v140h-316v134l293 432h241v-430h101v-136zM339 276v206l-132 -206h132z" />
    <glyph glyph-name="five" unicode="5" 
d="M318 560l-13 -102q35 6 69 6q110 0 186 -64.5t76 -172.5q0 -46 -16.5 -89.5t-50.5 -82t-95.5 -62t-141.5 -23.5q-112 0 -190 48t-104 135l100 51q48 -84 130 -84q49 0 85.5 29t36.5 77t-36 77.5t-84 29.5q-64 0 -110 -46l-86 45l48 374h459l-10 -146h-253z" />
    <glyph glyph-name="six" unicode="6" 
d="M620 575l-102 -53q-51 65 -114 65q-118 0 -126 -163q67 47 142 47q101 0 166.5 -63t65.5 -163q0 -42 -14 -85.5t-45 -87t-91.5 -71t-142.5 -27.5q-160 0 -242.5 99t-82.5 262q0 52 10 104.5t34 106.5t60.5 95.5t95 67.5t131.5 26q189 0 255 -160zM433 235q0 46 -18 78.5
t-60 32.5t-60 -32t-18 -79q0 -121 79 -121q43 0 60 36.5t17 84.5z" />
    <glyph glyph-name="seven" unicode="7" 
d="M628 706v-96l-291 -610h-252l91 175t113 215t95 173h-329l8 143h565z" />
    <glyph glyph-name="eight" unicode="8" 
d="M527 372q61 -22 99.5 -69t38.5 -109q0 -92 -81 -155t-243 -63q-151 0 -236.5 58t-85.5 155q0 135 132 183q-103 62 -103 161q0 88 75.5 144t216.5 56t218 -58t77 -135q0 -106 -108 -168zM424 516q0 37 -22 63.5t-58 26.5q-38 0 -60.5 -26.5t-22.5 -65.5q0 -40 22.5 -66
t61.5 -26q37 0 58 28t21 66zM425 208q0 44 -22 73t-64 29q-41 0 -64 -31.5t-23 -73.5q0 -43 23 -71.5t65 -28.5q41 0 63 30.5t22 72.5z" />
    <glyph glyph-name="nine" unicode="9" 
d="M33 147l101 52q25 -39 54 -57.5t74 -18.5q69 0 100.5 45t31.5 116q-65 -47 -140 -47q-103 0 -167.5 64.5t-64.5 168.5q0 48 16.5 93.5t50 85t92 63.5t133.5 24q80 0 142 -26t97 -64t57 -89.5t29 -94.5t7 -86q0 -48 -9 -98t-34 -105.5t-62 -98.5t-100.5 -71t-142.5 -28
q-100 0 -162 40.5t-103 131.5zM397 475q0 21 -3.5 40.5t-11.5 38.5t-24.5 30t-38.5 11q-78 0 -78 -123q0 -45 18.5 -77.5t59.5 -32.5q42 0 60 33.5t18 79.5z" />
    <glyph glyph-name="colon" unicode=":" horiz-adv-x="333" 
d="M52 416q0 36 34 68.5t92 32.5t91.5 -32.5t33.5 -68.5t-33.5 -69t-91.5 -33q-48 0 -87 29t-39 73zM52 83q0 36 34.5 68.5t91.5 32.5t91 -33t34 -69t-34 -68.5t-92 -32.5q-48 0 -86.5 29t-38.5 73z" />
    <glyph glyph-name="semicolon" unicode=";" horiz-adv-x="333" 
d="M4 -169l71 333h222l-209 -354zM61 415q0 36 33.5 69t91.5 33t91.5 -33t33.5 -69t-33.5 -69t-91.5 -33q-48 0 -86.5 28.5t-38.5 73.5z" />
    <glyph glyph-name="less" unicode="&#x3c;" horiz-adv-x="724" 
d="M577 36l-465 222v179l465 216v-184l-267 -109l267 -114v-210z" />
    <glyph glyph-name="equal" unicode="=" horiz-adv-x="724" 
d="M625 110h-525v168h525v-168zM625 353h-525v167h525v-167z" />
    <glyph glyph-name="greater" unicode="&#x3e;" horiz-adv-x="724" 
d="M141 653l464 -222v-178l-464 -217v185l267 108l-267 114v210z" />
    <glyph glyph-name="question" unicode="?" horiz-adv-x="562" 
d="M319 262h-126q3 41 13 64.5t37 59.5q5 6 20 25t22 29t14 27t7 34q0 36 -23.5 58t-59.5 22q-68 0 -114 -82l-101 43q71 192 278 192q118 0 189 -54.5t71 -144.5q0 -54 -27.5 -96t-69.5 -64l-57 -30q-36 -19 -51 -36.5t-22 -46.5zM134 84q0 36 32.5 68t88.5 32t89.5 -32
t33.5 -69q0 -36 -33 -68t-90 -32q-49 0 -85 29t-36 72z" />
    <glyph glyph-name="at" unicode="@" horiz-adv-x="843" 
d="M772 103l45 -53q-161 -174 -385 -174q-180 0 -292.5 106t-112.5 276q0 190 133 322.5t324 132.5q153 0 245.5 -84t92.5 -223q0 -133 -71 -234.5t-165 -101.5q-81 0 -104 73q-51 -72 -121 -72q-60 0 -99.5 47.5t-39.5 120.5q0 112 78 198q82 89 213 89q50 0 131 -19
l-44 -199q-13 -59 -13 -94q0 -47 32 -47q37 0 67 81t30 155q0 99 -62.5 155t-172.5 56q-144 0 -239.5 -100t-95.5 -252q0 -131 82.5 -209.5t221.5 -78.5q175 0 322 129zM477 232l38 192q-20 4 -32 4q-57 0 -100 -57.5t-43 -134.5q0 -31 14 -50t36 -19q20 0 44.5 18t42.5 47z
" />
    <glyph glyph-name="A" unicode="A" horiz-adv-x="750" 
d="M761 0h-254l-34 97h-249l-36 -97h-205l299 706h191zM420 239l-69 200l-72 -200h141z" />
    <glyph glyph-name="B" unicode="B" horiz-adv-x="708" 
d="M57 706h360q119 0 179.5 -48t60.5 -122q0 -60 -38 -100t-99 -60q78 -12 128 -60.5t50 -120.5q0 -77 -65.5 -136t-191.5 -59h-384v706zM294 558v-143h25q45 0 72.5 19.5t27.5 55.5q0 35 -26.5 51.5t-64.5 16.5h-34zM294 325v-179h38q55 0 85.5 23.5t30.5 64.5q0 45 -34 68
t-91 23h-29z" />
    <glyph glyph-name="C" unicode="C" horiz-adv-x="729" 
d="M734 572l-96 -75q-35 43 -69 62.5t-84 19.5q-91 0 -141 -65t-50 -159q0 -90 50 -151.5t138 -61.5q90 0 171 79l84 -82q-115 -158 -342 -158q-164 0 -266.5 105.5t-102.5 255.5q0 106 57.5 201t151.5 141q81 39 188 39q102 0 174 -35.5t137 -115.5z" />
    <glyph glyph-name="D" unicode="D" horiz-adv-x="812" 
d="M56 706h336q120 0 198.5 -29.5t135.5 -116.5q56 -87 56 -201q0 -47 -9.5 -93t-35.5 -95.5t-65 -86.5t-104.5 -60.5t-148.5 -23.5h-363v706zM315 547v-391h18q61 0 90 16q44 24 66 75t22 106t-22.5 106.5t-66.5 73.5q-28 14 -85 14h-22z" />
    <glyph glyph-name="E" unicode="E" horiz-adv-x="646" 
d="M633 0h-577v706h539v-159h-280v-111h232v-145h-232v-132h318v-159z" />
    <glyph glyph-name="F" unicode="F" horiz-adv-x="583" 
d="M592 547h-275v-127h227v-157h-227v-263h-261v706h536v-159z" />
    <glyph glyph-name="G" unicode="G" horiz-adv-x="771" 
d="M430 379h309v-320q-173 -75 -322 -75q-172 0 -281 95t-109 267q0 170 115.5 274.5t286.5 104.5q100 0 178.5 -40.5t123.5 -115.5l-91 -73q-63 85 -157 85q-50 0 -87.5 -20.5t-58.5 -56t-31.5 -77t-10.5 -88.5q0 -39 7.5 -75.5t24 -69.5t47.5 -53t73 -20q29 0 59 8v108
h-76v142z" />
    <glyph glyph-name="H" unicode="H" horiz-adv-x="812" 
d="M755 0h-261v286h-178v-286h-261v706h261v-261h178v261h261v-706z" />
    <glyph glyph-name="I" unicode="I" horiz-adv-x="375" 
d="M318 0h-262v706h262v-706z" />
    <glyph glyph-name="J" unicode="J" horiz-adv-x="562" 
d="M255 706h262v-478q0 -68 -22 -118.5t-61 -79.5t-86 -42.5t-103 -13.5q-92 0 -156.5 37t-107.5 118l94 66q41 -67 98 -67q82 0 82 109v469z" />
    <glyph glyph-name="K" unicode="K" horiz-adv-x="750" 
d="M768 0h-272q-108 180 -195 338v-338h-245v706h245v-296l221 296h232l-222 -296q64 -115 236 -410z" />
    <glyph glyph-name="L" unicode="L" horiz-adv-x="604" 
d="M598 0h-541v706h261v-547h280v-159z" />
    <glyph glyph-name="M" unicode="M" horiz-adv-x="938" 
d="M937 0h-234l-43 363l-142 -363h-153l-138 363l-38 -363h-192l104 706h221l142 -375l149 375h214z" />
    <glyph glyph-name="N" unicode="N" horiz-adv-x="771" 
d="M714 0h-136l-331 358v-358h-190v706h161l306 -334v334h190v-706z" />
    <glyph glyph-name="O" unicode="O" horiz-adv-x="833" 
d="M800 358q0 -95 -34 -169.5t-90 -117.5t-121.5 -65t-135.5 -22q-173 0 -282.5 101.5t-109.5 272.5q0 167 109 265t279 98q74 0 141.5 -22.5t122.5 -65.5t88 -114t33 -161zM531 354q0 220 -120 220q-39 0 -64.5 -21.5t-36 -60t-13.5 -68.5t-3 -71q0 -221 120 -221
q40 0 65.5 21.5t35.5 61t13 68.5t3 71z" />
    <glyph glyph-name="P" unicode="P" horiz-adv-x="729" 
d="M56 706h430q106 0 174 -56.5t68 -161.5q0 -59 -22 -102t-54 -66.5t-79.5 -37t-87.5 -17.5t-89 -4h-81v-261h-259v706zM315 561v-207h28q60 0 94 27.5t34 82.5q0 28 -10.5 47t-24 28.5t-38 14.5t-40.5 6t-43 1z" />
    <glyph glyph-name="Q" unicode="Q" horiz-adv-x="833" 
d="M964 -78l-39 -97q-68 -12 -101 -12q-65 0 -145 22q-140 37 -357 141q-153 73 -223.5 161t-70.5 225q0 164 107.5 264t272.5 100q171 0 281 -100t110 -271q0 -97 -44.5 -182.5t-126.5 -132.5q94 -53 169.5 -81.5t166.5 -36.5zM532 362q0 39 -3.5 69t-14 66.5t-36 57
t-64.5 20.5q-118 0 -118 -218q0 -226 122 -226q39 0 64 23t35 65t12.5 71.5t2.5 71.5z" />
    <glyph glyph-name="R" unicode="R" horiz-adv-x="750" 
d="M767 0h-262q-75 148 -135 287h-58v-287h-256v706h421q112 0 181.5 -49t69.5 -158q0 -57 -32 -101t-87 -70q50 -124 158 -328zM312 561v-187q36 0 68 6.5t60.5 30.5t28.5 63q0 87 -131 87h-26z" />
    <glyph glyph-name="S" unicode="S" horiz-adv-x="646" 
d="M622 576l-101 -64q-30 41 -62 58.5t-80 17.5q-40 0 -72.5 -17t-32.5 -54q0 -30 26.5 -46t88.5 -28q43 -8 76.5 -17t69 -26t58 -39t37.5 -56.5t15 -77.5t-19 -85t-57.5 -79t-105 -59.5t-151.5 -22.5q-223 0 -313 172l100 62q39 -50 77.5 -74t94.5 -24q44 0 79.5 17.5
t35.5 57.5q0 31 -26 47.5t-92 30.5l-51 11q-200 43 -200 206q0 102 79.5 169t224.5 67q116 0 186 -36.5t115 -110.5z" />
    <glyph glyph-name="T" unicode="T" horiz-adv-x="604" 
d="M608 547h-173v-547h-260v547h-177v159h610v-159z" />
    <glyph glyph-name="U" unicode="U" horiz-adv-x="833" 
d="M773 0h-262v94q-78 -117 -221 -117q-101 0 -167 59.5t-66 179.5v490h262v-467q0 -43 21.5 -74.5t68.5 -31.5q36 0 59 19t43 55v499h262v-706z" />
    <glyph glyph-name="V" unicode="V" horiz-adv-x="729" 
d="M731 706l-287 -706h-167l-282 706h266l134 -405l136 405h200z" />
    <glyph glyph-name="W" unicode="W" horiz-adv-x="958" 
d="M961 706l-189 -706h-164l-132 353l-145 -353h-160l-178 706h251l68 -337l121 337h151l111 -337l72 337h194z" />
    <glyph glyph-name="X" unicode="X" horiz-adv-x="750" 
d="M754 0h-278l-119 190l-134 -190h-229l257 344l-234 362h280l104 -175l122 175h218l-236 -320z" />
    <glyph glyph-name="Y" unicode="Y" horiz-adv-x="729" 
d="M729 706l-250 -601q-74 -179 -160 -247.5t-237 -68.5h-57v101q88 5 140 46t93 128l-259 642h259l133 -398l142 398h196z" />
    <glyph glyph-name="Z" unicode="Z" 
d="M677 624l-316 -465h308v-159h-661v82l310 465h-280v159h639v-82z" />
    <glyph glyph-name="bracketleft" unicode="[" horiz-adv-x="396" 
d="M364 0h-308v706h308v-95h-127v-517h127v-94z" />
    <glyph glyph-name="backslash" unicode="\" horiz-adv-x="458" 
d="M469 0h-174l-307 706h174z" />
    <glyph glyph-name="bracketright" unicode="]" horiz-adv-x="396" 
d="M338 0h-309v95h128v517h-128v94h309v-706z" />
    <glyph glyph-name="asciicircum" unicode="^" horiz-adv-x="724" 
d="M669 279h-222l-87 231l-96 -231h-208l218 427h184z" />
    <glyph glyph-name="underscore" unicode="_" horiz-adv-x="500" 
d="M510 -228h-520v103h520v-103z" />
    <glyph glyph-name="grave" unicode="`" horiz-adv-x="292" 
d="M247 593l-256 195h190l120 -151z" />
    <glyph glyph-name="a" unicode="a" horiz-adv-x="625" 
d="M586 0h-230v73q-34 -46 -73 -67.5t-95 -21.5q-81 0 -131.5 49t-50.5 130q0 51 20.5 90t53.5 59.5t68.5 30.5t71.5 10q66 0 136 -24v13q0 54 -31 87t-82 33q-76 0 -141 -70l-68 57q59 68 125 98t157 30q54 0 100.5 -11.5t85.5 -36t61.5 -68.5t22.5 -105v-356zM356 154v81
q-24 7 -51 7q-31 0 -54.5 -17.5t-23.5 -48.5q0 -26 16 -43t42 -17q21 0 35.5 9t35.5 29z" />
    <glyph glyph-name="b" unicode="b" horiz-adv-x="708" 
d="M51 706h228v-214q34 40 69.5 59t85.5 19q114 0 178 -85t64 -203q0 -70 -24.5 -135.5t-81.5 -113.5t-135 -48q-51 0 -85.5 21.5t-70.5 67.5v-74h-228v706zM279 398v-237q35 -23 65 -23q50 0 71.5 42t21.5 98q0 55 -23 99t-72 44q-25 0 -63 -23z" />
    <glyph glyph-name="c" unicode="c" horiz-adv-x="583" 
d="M526 174l64 -46q-38 -72 -107 -110t-153 -38q-78 0 -139 29t-95 74t-51 93.5t-17 94.5q0 132 89.5 216t221.5 84q81 0 148 -37t103 -107l-65 -46q-30 32 -56 47t-65 15q-65 0 -102 -48t-37 -115q0 -71 34 -122.5t102 -51.5q69 0 125 68z" />
    <glyph glyph-name="d" unicode="d" horiz-adv-x="708" 
d="M655 0h-230v72q-59 -88 -165 -88q-58 0 -103.5 24t-73 65t-42 91t-14.5 105q0 57 14 109.5t41.5 97t74.5 71.5t107 27q53 0 90 -19t71 -61v212h230v-706zM425 160v240q-34 23 -62 23q-51 0 -74.5 -45t-23.5 -101q0 -55 22.5 -97t72.5 -42q28 0 65 22z" />
    <glyph glyph-name="e" unicode="e" horiz-adv-x="646" 
d="M630 228h-373q6 -61 46.5 -91.5t98.5 -30.5q44 0 77.5 18t69.5 53l61 -52q-102 -141 -271 -141q-137 0 -224 79t-87 215q0 132 83 214.5t215 82.5q135 0 219.5 -82.5t84.5 -235.5v-29zM249 342h161q-4 110 -79 110q-73 0 -82 -110z" />
    <glyph glyph-name="f" unicode="f" horiz-adv-x="375" 
d="M381 500v-129h-90v-371h-229v371h-63v129h63q0 58 12 94q23 66 82 100.5t132 34.5q82 0 164 -53l-40 -68q-25 10 -42 10q-39 0 -59 -24.5t-20 -59.5v-34h90z" />
    <glyph glyph-name="g" unicode="g" 
d="M406 547h229v-471q0 -143 -83 -215t-228 -72q-101 0 -170 35.5t-116 117.5l70 48q34 -44 67 -65.5t81 -21.5q76 0 113 48t37 122v32q-54 -80 -161 -80q-108 0 -169 79t-61 190q0 108 63 190.5t168 82.5q56 0 92 -20t68 -67v67zM406 198v193q-35 25 -64 25
q-45 0 -66.5 -36.5t-21.5 -84.5q0 -49 22 -84t68 -35q28 0 62 22z" />
    <glyph glyph-name="h" unicode="h" 
d="M638 0h-228v325q0 41 -12.5 66t-49.5 25q-41 0 -68 -40v-376h-230v706h230v-235q31 46 79.5 72t104.5 26q79 0 126.5 -45.5t47.5 -125.5v-398z" />
    <glyph glyph-name="i" unicode="i" horiz-adv-x="333" 
d="M281 0h-230v547h230v-547zM42 698q0 32 32.5 63t91.5 31t92 -31t33 -63t-33 -63.5t-92 -31.5q-53 0 -88.5 28.5t-35.5 66.5z" />
    <glyph glyph-name="j" unicode="j" horiz-adv-x="333" 
d="M52 547h228v-500q0 -64 -13 -107.5t-52 -80.5q-31 -29 -80 -44t-85 -17.5t-92 -2.5l-3 81q63 8 80 40.5t17 104.5v526zM42 698q0 32 32.5 63t91.5 31t91.5 -31t32.5 -63t-32.5 -63.5t-91.5 -31.5q-53 0 -88.5 28.5t-35.5 66.5z" />
    <glyph glyph-name="k" unicode="k" horiz-adv-x="667" 
d="M280 322l175 225h208l-178 -216l146 -258q24 -41 50 -73h-247q-15 15 -30.5 35.5t-26.5 36t-28.5 46t-23 41t-24.5 46.5t-21 39v-244h-230v706h230v-384z" />
    <glyph glyph-name="l" unicode="l" horiz-adv-x="333" 
d="M281 0h-229v706h229v-706z" />
    <glyph glyph-name="m" unicode="m" horiz-adv-x="1042" 
d="M989 0h-228v341q0 33 -15 55t-47 22q-36 0 -67 -36v-382h-228v321q0 96 -64 96q-40 0 -64 -35v-382h-225v547h225v-79q25 48 74.5 74.5t108.5 26.5q123 0 164 -101q59 102 188 102q76 0 127 -41t51 -119v-410z" />
    <glyph glyph-name="n" unicode="n" 
d="M636 0h-230v340q0 33 -15 54.5t-46 21.5q-34 0 -67 -38v-378h-227v547h227v-74q40 49 81.5 72.5t100.5 23.5q80 0 128 -45.5t48 -124.5v-399z" />
    <glyph glyph-name="o" unicode="o" horiz-adv-x="708" 
d="M676 276q0 -37 -9.5 -75t-33.5 -79t-60 -72.5t-95.5 -51.5t-133.5 -20q-136 0 -225.5 80.5t-89.5 214.5q0 137 91.5 218t230.5 81q72 0 130.5 -20.5t93.5 -51.5t59 -72t33 -78.5t9 -73.5zM437 270q0 93 -20 137t-64 44q-41 0 -62 -45.5t-21 -124.5q0 -180 83 -180
q84 0 84 169z" />
    <glyph glyph-name="p" unicode="p" horiz-adv-x="708" 
d="M51 547h229v-72q63 86 164 86q111 0 172 -85t61 -201q0 -77 -24.5 -142.5t-81 -111t-135.5 -45.5q-93 0 -156 77v-210h-229v704zM280 388v-241q30 -22 61 -22q51 0 74 44t23 100t-21.5 98.5t-71.5 42.5q-28 0 -65 -22z" />
    <glyph glyph-name="q" unicode="q" horiz-adv-x="708" 
d="M424 547h229v-703h-229v210q-64 -78 -159 -78q-77 0 -132.5 44t-80.5 109t-25 140q0 72 26.5 138t82.5 112t130 46q49 0 91.5 -23.5t66.5 -65.5v71zM424 148v243q-28 18 -60 18q-51 0 -75 -40.5t-24 -96.5q0 -34 8 -65t31 -56t58 -25q29 0 62 22z" />
    <glyph glyph-name="r" unicode="r" horiz-adv-x="458" 
d="M51 547h228v-88q19 49 62 77.5t94 28.5q19 0 38 -3v-193q-23 14 -35.5 20.5t-31.5 11.5t-40 5q-50 0 -87 -31v-375h-228v547z" />
    <glyph glyph-name="s" unicode="s" horiz-adv-x="562" 
d="M504 447l-70 -40q-24 32 -49 47t-62 15q-27 0 -49 -14.5t-22 -39.5q0 -18 13 -29.5t29.5 -17t51.5 -12.5q78 -16 128.5 -62.5t50.5 -119.5q0 -77 -66.5 -135.5t-199.5 -58.5q-94 0 -151 30t-104 105l75 46q61 -72 140 -72q42 0 61.5 18t19.5 36q0 27 -23.5 42t-78.5 28
q-166 39 -166 171q0 65 37.5 110t91.5 63.5t118 18.5q172 0 225 -129z" />
    <glyph glyph-name="t" unicode="t" horiz-adv-x="417" 
d="M291 369v-193q0 -76 64 -76q13 0 35 4l26 -73q-72 -53 -163 -53q-86 0 -138.5 46.5t-52.5 128.5v216h-61v131h61v134h229v-134h95v-131h-95z" />
    <glyph glyph-name="u" unicode="u" 
d="M634 0h-230v77q-69 -91 -169 -91q-84 0 -135 50t-51 142v369h227v-341q0 -33 14.5 -54.5t46.5 -21.5q33 0 67 38v379h230v-547z" />
    <glyph glyph-name="v" unicode="v" horiz-adv-x="542" 
d="M565 547l-237 -547h-131l-225 547h242l79 -253l91 253h181z" />
    <glyph glyph-name="w" unicode="w" horiz-adv-x="792" 
d="M808 547l-188 -547h-124l-100 228l-108 -228h-125l-182 547h236l61 -240l91 240h104l86 -247l71 247h178z" />
    <glyph glyph-name="x" unicode="x" horiz-adv-x="625" 
d="M635 0h-258l-92 144l-101 -144h-203l211 274l-194 273h260l75 -123l91 123h202l-202 -251z" />
    <glyph glyph-name="y" unicode="y" horiz-adv-x="562" 
d="M587 547l-213 -498q-60 -140 -138 -196t-227 -56h-25v86q41 3 71.5 15t54.5 37.5t38.5 47.5t38.5 64l-208 500h242l85 -280l98 280h183z" />
    <glyph glyph-name="z" unicode="z" horiz-adv-x="521" 
d="M505 0h-502v90l209 324h-194v133h476v-92l-206 -326h217v-129z" />
    <glyph glyph-name="braceleft" unicode="{" horiz-adv-x="365" 
d="M7 316v71q44 10 59 37.5t15 90.5v58q0 46 14 75.5t43 42.5t58 17t75 4h93v-69q-60 -11 -80.5 -33.5t-20.5 -77.5v-31q0 -72 -21.5 -102t-83.5 -47q60 -19 82.5 -45.5t22.5 -93.5v-40q0 -58 20 -80t81 -33v-69h-94q-102 0 -145.5 28t-43.5 116v59q0 58 -15 86t-59 36z" />
    <glyph glyph-name="bar" unicode="|" horiz-adv-x="293" 
d="M56 746h181v-785h-181v785z" />
    <glyph glyph-name="braceright" unicode="}" horiz-adv-x="365" 
d="M358 388v-72q-44 -8 -58.5 -35t-14.5 -93v-58q0 -45 -14 -74t-43.5 -42.5t-61 -18t-81.5 -4.5h-84v69q60 11 80.5 33.5t20.5 77.5v31q0 72 21.5 102.5t84.5 47.5q-59 18 -82.5 45t-23.5 93v40q0 58 -20 80.5t-81 33.5v68h93q102 0 146.5 -28.5t44.5 -115.5v-59
q0 -61 14.5 -86.5t58.5 -34.5z" />
    <glyph glyph-name="asciitilde" unicode="~" horiz-adv-x="724" 
d="M673 322q-52 -75 -92.5 -106.5t-88.5 -31.5q-43 0 -123 44l-35 19q-64 35 -104 35q-26 0 -46 -14t-47 -50l-8 -11l-77 140q45 76 84.5 107.5t91.5 31.5q41 0 116 -38l62 -32q56 -29 79 -29q56 0 111 74z" />
    <glyph glyph-name="nbspace" unicode="&#xa0;" horiz-adv-x="292" 
 />
    <glyph glyph-name="exclamdown" unicode="&#xa1;" horiz-adv-x="333" 
d="M273 0h-235v123q0 107 13.5 173.5t57.5 146.5h100q40 -86 52 -148t12 -168v-127zM278 625q0 -36 -33 -68t-89 -32t-89 32t-33 69q0 36 33 68t90 32q49 0 85 -29t36 -72z" />
    <glyph glyph-name="cent" unicode="&#xa2;" horiz-adv-x="604" 
d="M590 427l-64 -47q-30 33 -57 48t-65 15q-65 0 -102 -48t-37 -115q0 -71 34 -122.5t102 -51.5q69 0 125 68l64 -46q-75 -131 -221 -146v-107h-94v109q-108 15 -177.5 97.5t-69.5 194.5q0 107 69 189.5t178 100.5v113h94v-109q70 -4 128 -42t93 -101z" />
    <glyph glyph-name="sterling" unicode="&#xa3;" 
d="M686 155l-61 -155h-418q-36 0 -84 -10l-57 91q69 58 69 146q0 14 -7 58h-140v128h111q0 6 -1 17.5t-1.5 21t-0.5 17.5q0 128 81.5 193.5t213.5 65.5q104 0 165 -43.5t92 -140.5l-106 -42q-33 79 -105 79q-46 0 -72 -30t-26 -77q0 -21 6 -61h176v-128h-151
q-2 -41 -11 -67.5t-32 -62.5h359z" />
    <glyph glyph-name="currency" unicode="&#xa4;" horiz-adv-x="700" 
d="M576 671l106 -106l-82 -81q38 -70 38 -144q0 -81 -39 -147l83 -82l-107 -106l-80 84q-75 -39 -144 -39q-79 0 -146 40l-83 -83l-104 104l82 84q-40 68 -40 142q0 73 40 146l-82 81l105 106l81 -83q67 41 145 41t147 -41zM471 338q0 53 -35 89.5t-86 36.5q-52 0 -87 -36
t-35 -89t35 -88.5t87 -35.5q51 0 86 36t35 87z" />
    <glyph glyph-name="yen" unicode="&#xa5;" horiz-adv-x="672" 
d="M670 706l-122 -275h79v-116h-130l-37 -85h167v-116h-222q-59 -113 -135 -157.5t-207 -44.5q-27 0 -40 1v86q74 8 115.5 31.5t80.5 83.5h-195v116h179l-36 85h-143v116h93l-118 275h240l120 -342l130 342h181z" />
    <glyph glyph-name="brokenbar" unicode="&#xa6;" horiz-adv-x="293" 
d="M55 746h181v-335h-181v335zM55 296h181v-335h-181v335z" />
    <glyph glyph-name="section" unicode="&#xa7;" horiz-adv-x="604" 
d="M561 545l-104 -47q-7 16 -12 26.5t-16.5 26t-28.5 23.5t-39 8q-26 0 -46.5 -14.5t-20.5 -43.5q0 -56 124 -76q21 -4 43 -10.5t50.5 -21.5t49.5 -34.5t36 -51t15 -69.5q0 -100 -94 -171q27 -43 27 -93q0 -16 -4 -35.5t-19.5 -50t-41.5 -53.5t-76.5 -40.5t-117.5 -17.5
q-38 0 -70.5 7t-54.5 15t-42.5 26t-31 28.5t-23.5 33.5t-16.5 30.5t-13.5 30.5l110 49q19 -37 41.5 -58.5t59.5 -21.5q33 0 48.5 18t15.5 37q0 12 -5.5 22t-13 16t-21 11.5t-22.5 8t-25.5 6.5t-21.5 5q-105 28 -155.5 73t-50.5 126q0 110 96 164q-28 45 -28 96
q0 84 71.5 142.5t183.5 58.5q89 0 153.5 -43.5t90.5 -135.5zM414 173q0 1 4 9t6.5 16.5t2.5 18.5q0 27 -18 49q-10 13 -31 23.5t-35.5 14.5t-46 10.5t-34.5 7.5q-28 7 -67 22q-13 -30 -13 -47q1 -45 42 -68q16 -9 38.5 -15.5t53.5 -13.5t40 -9q28 -7 58 -18z" />
    <glyph glyph-name="dieresis" unicode="&#xa8;" horiz-adv-x="292" 
d="M-18 783q58 0 88.5 -28.5t30.5 -56.5t-30.5 -56.5t-88.5 -28.5q-57 0 -88 27.5t-31 57.5q0 28 30.5 56.5t88.5 28.5zM310 783q58 0 88.5 -28.5t30.5 -56.5t-30.5 -56.5t-88.5 -28.5q-57 0 -88 27.5t-31 57.5q0 28 30.5 56.5t88.5 28.5z" />
    <glyph glyph-name="copyright" unicode="&#xa9;" horiz-adv-x="760" 
d="M571 468l-45 -35q-28 28 -44.5 37.5t-40.5 9.5q-45 0 -73 -34.5t-28 -90.5q0 -57 27.5 -93t71.5 -36q26 0 45.5 11t41.5 40l45 -34q-58 -112 -182 -112q-91 0 -150 63t-59 160q0 95 61 158.5t153 63.5q122 0 177 -108zM736 356q0 -151 -104 -255t-253 -104t-252 104
t-103 254q0 149 103 251.5t253 102.5q149 0 252.5 -102.5t103.5 -250.5zM685 351q0 133 -88 224.5t-217 91.5q-128 0 -217.5 -92t-89.5 -223q0 -130 89.5 -221.5t216.5 -91.5t216.5 91.5t89.5 220.5z" />
    <glyph glyph-name="ordfeminine" unicode="&#xaa;" horiz-adv-x="396" 
d="M369 363h-144v45q-42 -56 -105 -56q-52 0 -83 31.5t-31 83.5q0 54 39 85t95 31q40 0 85 -15q0 84 -73 84q-45 0 -85 -44l-43 35q40 45 81 62.5t103 17.5q41 0 75.5 -12t60 -45.5t25.5 -83.5v-219zM225 459v50q-8 5 -32 5q-20 0 -34.5 -11t-14.5 -31q0 -16 10 -26.5
t26 -10.5q26 0 45 24z" />
    <glyph glyph-name="guillemotleft" unicode="&#xab;" horiz-adv-x="479" 
d="M472 136h-149l-87 152l87 149h149l-87 -149zM239 136h-150l-86 152l86 149h150l-87 -149z" />
    <glyph glyph-name="logicalnot" unicode="&#xac;" horiz-adv-x="724" 
d="M418 253h-351v158h566v-380h-215v222z" />
    <glyph glyph-name="uni00AD" unicode="&#xad;" horiz-adv-x="351" 
d="M25 355h301v-131h-301v131z" />
    <glyph glyph-name="registered" unicode="&#xae;" horiz-adv-x="760" 
d="M736 356q0 -151 -104 -255t-253 -104t-252 104t-103 254q0 149 103 251.5t253 102.5q149 0 252.5 -102.5t103.5 -250.5zM685 351q0 133 -88 224.5t-217 91.5q-128 0 -217.5 -92t-89.5 -223q0 -130 89.5 -221.5t216.5 -91.5t216.5 91.5t89.5 220.5zM203 555h178
q83 0 117 -14q29 -12 46 -39t17 -62q0 -68 -66 -104l90 -186h-146l-66 165h-28v-165h-142v405zM345 472v-104q75 0 75 55q0 23 -15 36t-41 13h-19z" />
    <glyph glyph-name="macron" unicode="&#xaf;" horiz-adv-x="292" 
d="M-54 649v101h401v-101h-401z" />
    <glyph glyph-name="degree" unicode="&#xb0;" horiz-adv-x="354" 
d="M349 582q0 -70 -50.5 -121t-121.5 -51t-121.5 51t-50.5 121q0 72 50 122.5t122 50.5t122 -50.5t50 -122.5zM249 582q0 30 -21 50.5t-51 20.5t-51 -20.5t-21 -50.5q0 -29 21.5 -50.5t50.5 -21.5t50.5 21.5t21.5 50.5z" />
    <glyph glyph-name="plusminus" unicode="&#xb1;" horiz-adv-x="724" 
d="M469 213h-214v173h-164v153h164v167h214v-167h164v-153h-164v-173zM632 0h-541v168h541v-168z" />
    <glyph glyph-name="twosuperior" unicode="&#xb2;" horiz-adv-x="437" 
d="M398 262h-369v51l158 189q44 53 44 79q0 23 -18.5 37t-42.5 14q-44 0 -77 -57l-64 31q22 59 70 89.5t113 30.5q73 0 125.5 -36t52.5 -106q0 -56 -38 -104t-132 -130h178v-88z" />
    <glyph glyph-name="threesuperior" unicode="&#xb3;" horiz-adv-x="437" 
d="M149 453v71q36 0 61.5 13.5t25.5 43.5q0 23 -18 36t-41 13q-48 0 -82 -55l-64 33q24 56 72 87t113 31q62 0 112.5 -30t50.5 -88q0 -41 -24.5 -68.5t-65.5 -39.5q51 -11 82 -40t31 -78q0 -69 -59 -104t-134 -35q-153 0 -193 132l66 27q29 -67 91 -67q30 0 51.5 16t21.5 43
q0 30 -25 44.5t-61 14.5h-11z" />
    <glyph glyph-name="acute" unicode="&#xb4;" horiz-adv-x="292" 
d="M-8 636l118 153h190l-252 -199z" />
    <glyph glyph-name="mu" unicode="&#xb5;" 
d="M634 0h-230v77q-5 -18 -9 -29t-11.5 -24t-20 -19.5t-29.5 -6.5q-43 0 -58 33v-188h-227v704h227v-341q0 -33 14.5 -54.5t46.5 -21.5q33 0 67 38v379h230v-547z" />
    <glyph glyph-name="paragraph" unicode="&#xb6;" horiz-adv-x="637" 
d="M556 706v-96h-36v-777h-102v777h-99v-777h-103v459q-154 40 -154 199q0 101 66 161q33 31 72 42.5t111 11.5h245z" />
    <glyph glyph-name="periodcentered" unicode="&#xb7;" horiz-adv-x="313" 
d="M281 300q0 -43 -35 -71.5t-87 -28.5q-56 0 -91.5 28t-35.5 73q0 44 36 73t90 29q52 0 87.5 -30t35.5 -73z" />
    <glyph glyph-name="cedilla" unicode="&#xb8;" horiz-adv-x="292" 
d="M70 16l104 2l-1 -61q114 -21 114 -103q0 -45 -39 -82.5t-116 -37.5q-52 0 -128 20l21 82q43 -13 68 -13q14 0 24.5 3.5t15 8t7 10.5t3 9t0.5 5q0 37 -54 37q-15 0 -21 -1z" />
    <glyph glyph-name="onesuperior" unicode="&#xb9;" horiz-adv-x="437" 
d="M305 262h-148v314l-73 -25l-21 47l183 108h59v-444z" />
    <glyph glyph-name="ordmasculine" unicode="&#xba;" horiz-adv-x="458" 
d="M430 537q0 -76 -53.5 -132.5t-153.5 -56.5q-77 0 -137 48t-60 137q0 86 57.5 136.5t144.5 50.5q94 0 148 -53t54 -130zM281 536q0 108 -51 108q-53 0 -53 -106q0 -112 50 -112q54 0 54 110z" />
    <glyph glyph-name="guillemotright" unicode="&#xbb;" horiz-adv-x="479" 
d="M474 284l-87 -149h-149l87 149l-87 152h149zM241 284l-86 -149h-150l87 149l-87 152h150z" />
    <glyph glyph-name="onequarter" unicode="&#xbc;" horiz-adv-x="1000" 
d="M956 88h-62v-88h-139v88h-198v86l184 270h153v-270h62v-86zM670 706l-278 -706h-131l278 706h131zM281 262h-148v314l-72 -25l-22 47l183 108h59v-444zM755 174v124l-82 -124h82z" />
    <glyph glyph-name="onehalf" unicode="&#xbd;" horiz-adv-x="1000" 
d="M941 0h-369v51l158 189q44 53 44 79q0 23 -18.5 37t-42.5 14q-44 0 -77 -57l-64 31q22 59 70 89.5t113 30.5q73 0 125.5 -36t52.5 -106q0 -56 -38 -104t-132 -130h178v-88zM659 706l-278 -706h-131l278 706h131zM286 262h-148v314l-73 -25l-21 47l183 108h59v-444z" />
    <glyph glyph-name="threequarters" unicode="&#xbe;" horiz-adv-x="1000" 
d="M714 706l-277 -706h-131l277 706h131zM149 453v71q36 0 61.5 13.5t25.5 43.5q0 23 -18 36t-41 13q-48 0 -82 -55l-64 33q24 56 72 87t113 31q62 0 112.5 -30t50.5 -88q0 -41 -24.5 -68.5t-65.5 -39.5q51 -11 82 -40t31 -78q0 -69 -59 -104t-134 -35q-153 0 -193 132
l66 27q29 -67 91 -67q30 0 51.5 16t21.5 43q0 30 -25 44.5t-61 14.5h-11zM980 88h-62v-88h-139v88h-198v86l184 270h153v-270h62v-86zM779 174v124l-82 -124h82z" />
    <glyph glyph-name="questiondown" unicode="&#xbf;" horiz-adv-x="562" 
d="M241 444h126q-3 -41 -13 -64.5t-37 -59.5q-5 -6 -20 -25t-22 -29t-14 -27t-7 -34q0 -36 23.5 -58t59.5 -22q68 0 114 82l101 -43q-71 -192 -278 -192q-118 0 -189 54.5t-71 144.5q0 54 27.5 96t69.5 64l57 30q36 19 51 36.5t22 46.5zM427 625q0 -36 -33 -68t-89 -32
t-89.5 32t-33.5 69q0 36 33 68t90 32q49 0 85.5 -29t36.5 -72z" />
    <glyph glyph-name="Agrave" unicode="&#xc0;" horiz-adv-x="750" 
d="M761 0h-254l-34 97h-249l-36 -97h-205l299 706h191zM420 239l-69 200l-72 -200h141zM491 787l-55 -45l-254 194h188z" />
    <glyph glyph-name="Aacute" unicode="&#xc1;" horiz-adv-x="750" 
d="M761 0h-254l-34 97h-249l-36 -97h-205l299 706h191zM420 239l-69 200l-72 -200h141zM581 936l-254 -198l-55 46l118 152h191z" />
    <glyph glyph-name="Acircumflex" unicode="&#xc2;" horiz-adv-x="750" 
d="M761 0h-254l-34 97h-249l-36 -97h-205l299 706h191zM420 239l-69 200l-72 -200h141zM572 795l-55 -49l-141 120l-143 -120l-55 42l107 155h174z" />
    <glyph glyph-name="Atilde" unicode="&#xc3;" horiz-adv-x="750" 
d="M761 0h-254l-34 97h-249l-36 -97h-205l299 706h191zM420 239l-69 200l-72 -200h141zM201 774l-58 50q11 19 20 31.5t29 33.5t50 32t67 11q40 0 91.5 -18.5t71.5 -18.5q40 0 78 38l55 -51q-4 -11 -10 -23t-19 -29t-29.5 -29.5t-43.5 -21.5t-58 -9q-41 0 -95 21t-73 21
q-35 0 -76 -38z" />
    <glyph glyph-name="Adieresis" unicode="&#xc4;" horiz-adv-x="750" 
d="M761 0h-254l-34 97h-249l-36 -97h-205l299 706h191zM420 239l-69 200l-72 -200h141zM213 931q58 0 88.5 -28.5t30.5 -56.5t-30.5 -56.5t-88.5 -28.5q-57 0 -88 27.5t-31 57.5q0 28 30.5 56.5t88.5 28.5zM541 931q58 0 88.5 -28.5t30.5 -56.5t-30.5 -56.5t-88.5 -28.5
q-57 0 -88 27.5t-31 57.5q0 28 30.5 56.5t88.5 28.5z" />
    <glyph glyph-name="Aring" unicode="&#xc5;" horiz-adv-x="750" 
d="M761 0h-254l-34 97h-249l-36 -97h-205l299 706h191zM420 239l-69 200l-72 -200h141zM439 829q0 18 -19 30.5t-44 12.5q-24 0 -43 -12t-19 -31q0 -18 17 -31t45 -13q30 0 46.5 14t16.5 30zM507 829q0 -36 -35.5 -64.5t-93.5 -28.5q-56 0 -93 27.5t-37 65.5q0 40 39 66
t91 26q55 0 92 -27.5t37 -64.5z" />
    <glyph glyph-name="AE" unicode="&#xc6;" horiz-adv-x="1021" 
d="M1010 0h-546v122h-204l-61 -122h-217l390 706h602v-159h-281v-111h232v-144h-232v-133h317v-159zM464 258v268l-137 -268h137z" />
    <glyph glyph-name="Ccedilla" unicode="&#xc7;" horiz-adv-x="729" 
d="M734 572l-96 -75q-35 43 -69 62.5t-84 19.5q-91 0 -141 -65t-50 -159q0 -90 50 -151.5t138 -61.5q90 0 171 79l84 -82q-107 -147 -315 -157v-25q114 -21 114 -103q0 -45 -39 -82.5t-116 -37.5q-52 0 -128 20l21 82q43 -13 68 -13q14 0 24.5 3.5t15 8t7 10.5t3 9t0.5 5
q0 37 -54 37q-15 0 -21 -1q0 62 1 93q-133 24 -212.5 123.5t-79.5 230.5q0 106 57.5 201t151.5 141q81 39 188 39q102 0 174 -35.5t137 -115.5z" />
    <glyph glyph-name="Egrave" unicode="&#xc8;" horiz-adv-x="646" 
d="M633 0h-577v706h539v-159h-280v-111h232v-145h-232v-132h318v-159zM438 787l-55 -45l-254 194h188z" />
    <glyph glyph-name="Eacute" unicode="&#xc9;" horiz-adv-x="646" 
d="M633 0h-577v706h539v-159h-280v-111h232v-145h-232v-132h318v-159zM530 936l-254 -198l-55 46l118 152h191z" />
    <glyph glyph-name="Ecircumflex" unicode="&#xca;" horiz-adv-x="646" 
d="M633 0h-577v706h539v-159h-280v-111h232v-145h-232v-132h318v-159zM520 795l-55 -49l-141 120l-143 -120l-55 42l107 155h174z" />
    <glyph glyph-name="Edieresis" unicode="&#xcb;" horiz-adv-x="646" 
d="M633 0h-577v706h539v-159h-280v-111h232v-145h-232v-132h318v-159zM159 931q58 0 88.5 -28.5t30.5 -56.5t-30.5 -56.5t-88.5 -28.5q-57 0 -88 27.5t-31 57.5q0 28 30.5 56.5t88.5 28.5zM487 931q58 0 88.5 -28.5t30.5 -56.5t-30.5 -56.5t-88.5 -28.5q-57 0 -88 27.5
t-31 57.5q0 28 30.5 56.5t88.5 28.5z" />
    <glyph glyph-name="Igrave" unicode="&#xcc;" horiz-adv-x="375" 
d="M318 0h-262v706h262v-706zM303 787l-55 -45l-254 194h188z" />
    <glyph glyph-name="Iacute" unicode="&#xcd;" horiz-adv-x="375" 
d="M318 0h-262v706h262v-706zM394 936l-254 -198l-55 46l118 152h191z" />
    <glyph glyph-name="Icircumflex" unicode="&#xce;" horiz-adv-x="375" 
d="M318 0h-262v706h262v-706zM384 795l-55 -49l-141 120l-143 -120l-55 42l107 155h174z" />
    <glyph glyph-name="Idieresis" unicode="&#xcf;" horiz-adv-x="375" 
d="M318 0h-262v706h262v-706zM24 931q58 0 88.5 -28.5t30.5 -56.5t-30.5 -56.5t-88.5 -28.5q-57 0 -88 27.5t-31 57.5q0 28 30.5 56.5t88.5 28.5zM352 931q58 0 88.5 -28.5t30.5 -56.5t-30.5 -56.5t-88.5 -28.5q-57 0 -88 27.5t-31 57.5q0 28 30.5 56.5t88.5 28.5z" />
    <glyph glyph-name="Eth" unicode="&#xd0;" horiz-adv-x="812" 
d="M56 706h336q120 0 198.5 -29.5t135.5 -116.5q56 -87 56 -201q0 -117 -58.5 -211t-165.5 -129q-58 -19 -171 -19h-331v304h-56v122h56v280zM315 547v-121h93v-122h-93v-148h18q61 0 90 16q44 24 66 75t22 106t-22.5 106.5t-66.5 73.5q-28 14 -85 14h-22z" />
    <glyph glyph-name="Ntilde" unicode="&#xd1;" horiz-adv-x="771" 
d="M714 0h-136l-331 358v-358h-190v706h161l306 -334v334h190v-706zM212 774l-58 50q11 19 20 31.5t29 33.5t50 32t67 11q40 0 91.5 -18.5t71.5 -18.5q40 0 78 38l55 -51q-4 -11 -10 -23t-19 -29t-29.5 -29.5t-43.5 -21.5t-58 -9q-41 0 -95 21t-73 21q-35 0 -76 -38z" />
    <glyph glyph-name="Ograve" unicode="&#xd2;" horiz-adv-x="833" 
d="M800 358q0 -95 -34 -169.5t-90 -117.5t-121.5 -65t-135.5 -22q-173 0 -282.5 101.5t-109.5 272.5q0 167 109 265t279 98q74 0 141.5 -22.5t122.5 -65.5t88 -114t33 -161zM531 354q0 220 -120 220q-39 0 -64.5 -21.5t-36 -60t-13.5 -68.5t-3 -71q0 -221 120 -221
q40 0 65.5 21.5t35.5 61t13 68.5t3 71zM532 787l-55 -45l-254 194h188z" />
    <glyph glyph-name="Oacute" unicode="&#xd3;" horiz-adv-x="833" 
d="M800 358q0 -95 -34 -169.5t-90 -117.5t-121.5 -65t-135.5 -22q-173 0 -282.5 101.5t-109.5 272.5q0 167 109 265t279 98q74 0 141.5 -22.5t122.5 -65.5t88 -114t33 -161zM531 354q0 220 -120 220q-39 0 -64.5 -21.5t-36 -60t-13.5 -68.5t-3 -71q0 -221 120 -221
q40 0 65.5 21.5t35.5 61t13 68.5t3 71zM623 936l-254 -198l-55 46l118 152h191z" />
    <glyph glyph-name="Ocircumflex" unicode="&#xd4;" horiz-adv-x="833" 
d="M800 358q0 -95 -34 -169.5t-90 -117.5t-121.5 -65t-135.5 -22q-173 0 -282.5 101.5t-109.5 272.5q0 167 109 265t279 98q74 0 141.5 -22.5t122.5 -65.5t88 -114t33 -161zM531 354q0 220 -120 220q-39 0 -64.5 -21.5t-36 -60t-13.5 -68.5t-3 -71q0 -221 120 -221
q40 0 65.5 21.5t35.5 61t13 68.5t3 71zM614 795l-55 -49l-141 120l-143 -120l-55 42l107 155h174z" />
    <glyph glyph-name="Otilde" unicode="&#xd5;" horiz-adv-x="833" 
d="M800 358q0 -95 -34 -169.5t-90 -117.5t-121.5 -65t-135.5 -22q-173 0 -282.5 101.5t-109.5 272.5q0 167 109 265t279 98q74 0 141.5 -22.5t122.5 -65.5t88 -114t33 -161zM531 354q0 220 -120 220q-39 0 -64.5 -21.5t-36 -60t-13.5 -68.5t-3 -71q0 -221 120 -221
q40 0 65.5 21.5t35.5 61t13 68.5t3 71zM243 774l-58 50q11 19 20 31.5t29 33.5t50 32t67 11q40 0 91.5 -18.5t71.5 -18.5q40 0 78 38l55 -51q-4 -11 -10 -23t-19 -29t-29.5 -29.5t-43.5 -21.5t-58 -9q-41 0 -95 21t-73 21q-35 0 -76 -38z" />
    <glyph glyph-name="Odieresis" unicode="&#xd6;" horiz-adv-x="833" 
d="M800 358q0 -95 -34 -169.5t-90 -117.5t-121.5 -65t-135.5 -22q-173 0 -282.5 101.5t-109.5 272.5q0 167 109 265t279 98q74 0 141.5 -22.5t122.5 -65.5t88 -114t33 -161zM531 354q0 220 -120 220q-39 0 -64.5 -21.5t-36 -60t-13.5 -68.5t-3 -71q0 -221 120 -221
q40 0 65.5 21.5t35.5 61t13 68.5t3 71zM250 931q58 0 88.5 -28.5t30.5 -56.5t-30.5 -56.5t-88.5 -28.5q-57 0 -88 27.5t-31 57.5q0 28 30.5 56.5t88.5 28.5zM578 931q58 0 88.5 -28.5t30.5 -56.5t-30.5 -56.5t-88.5 -28.5q-57 0 -88 27.5t-31 57.5q0 28 30.5 56.5t88.5 28.5
z" />
    <glyph glyph-name="multiply" unicode="&#xd7;" horiz-adv-x="724" 
d="M630 227l-141 -153l-139 128l-112 -123l-119 110l112 122l-137 125l141 153l136 -125l114 124l118 -110l-113 -123z" />
    <glyph glyph-name="Oslash" unicode="&#xd8;" horiz-adv-x="833" 
d="M742 736l67 -68l-85 -83q76 -100 76 -231q0 -168 -109 -270.5t-278 -102.5q-72 0 -126.5 17t-115.5 58l-87 -84l-66 67l85 83q-75 111 -75 240q0 162 108 262t271 100q148 0 247 -73zM287 298l225 216q-34 67 -101 67q-28 0 -49.5 -10t-34.5 -29t-21.5 -39.5t-12.5 -48.5
t-5 -48.5t-1 -46.5v-61zM543 411l-230 -220q18 -37 41 -54.5t62 -17.5q127 0 127 217v75z" />
    <glyph glyph-name="Ugrave" unicode="&#xd9;" horiz-adv-x="833" 
d="M773 0h-262v94q-78 -117 -221 -117q-101 0 -167 59.5t-66 179.5v490h262v-467q0 -43 21.5 -74.5t68.5 -31.5q36 0 59 19t43 55v499h262v-706zM532 787l-55 -45l-254 194h188z" />
    <glyph glyph-name="Uacute" unicode="&#xda;" horiz-adv-x="833" 
d="M773 0h-262v94q-78 -117 -221 -117q-101 0 -167 59.5t-66 179.5v490h262v-467q0 -43 21.5 -74.5t68.5 -31.5q36 0 59 19t43 55v499h262v-706zM623 936l-254 -198l-55 46l118 152h191z" />
    <glyph glyph-name="Ucircumflex" unicode="&#xdb;" horiz-adv-x="833" 
d="M773 0h-262v94q-78 -117 -221 -117q-101 0 -167 59.5t-66 179.5v490h262v-467q0 -43 21.5 -74.5t68.5 -31.5q36 0 59 19t43 55v499h262v-706zM614 795l-55 -49l-141 120l-143 -120l-55 42l107 155h174z" />
    <glyph glyph-name="Udieresis" unicode="&#xdc;" horiz-adv-x="833" 
d="M773 0h-262v94q-78 -117 -221 -117q-101 0 -167 59.5t-66 179.5v490h262v-467q0 -43 21.5 -74.5t68.5 -31.5q36 0 59 19t43 55v499h262v-706zM251 931q58 0 88.5 -28.5t30.5 -56.5t-30.5 -56.5t-88.5 -28.5q-57 0 -88 27.5t-31 57.5q0 28 30.5 56.5t88.5 28.5zM579 931
q58 0 88.5 -28.5t30.5 -56.5t-30.5 -56.5t-88.5 -28.5q-57 0 -88 27.5t-31 57.5q0 28 30.5 56.5t88.5 28.5z" />
    <glyph glyph-name="Yacute" unicode="&#xdd;" horiz-adv-x="729" 
d="M729 706l-250 -601q-74 -179 -160 -247.5t-237 -68.5h-57v101q88 5 140 46t93 128l-259 642h259l133 -398l142 398h196zM572 936l-254 -198l-55 46l118 152h191z" />
    <glyph glyph-name="Thorn" unicode="&#xde;" horiz-adv-x="729" 
d="M56 706h259v-110h182q40 0 79 -12t74 -36t56.5 -68t21.5 -102t-21.5 -100.5t-54 -66.5t-81 -38t-92.5 -18.5t-98 -4.5h-66v-150h-259v706zM315 451v-207h28q59 0 93.5 28.5t34.5 81.5q0 28 -10.5 47t-23 28.5t-37.5 14.5t-40 6t-45 1z" />
    <glyph glyph-name="germandbls" unicode="&#xdf;" 
d="M279 0h-228v451q0 70 16 118t61 89q82 74 227 74q79 0 136.5 -19t86.5 -50t41.5 -60t12.5 -58q0 -59 -29 -94t-88 -68q162 -94 162 -231q0 -78 -54.5 -126t-133.5 -48q-83 0 -171 55l43 80q17 -7 31 -7q24 0 39.5 16t15.5 40q0 73 -109 182v86q39 7 64.5 30.5t25.5 64.5
q0 30 -19.5 51t-48.5 21q-33 0 -57 -24t-24 -76v-497z" />
    <glyph glyph-name="agrave" unicode="&#xe0;" horiz-adv-x="625" 
d="M586 0h-230v73q-34 -46 -73 -67.5t-95 -21.5q-81 0 -131.5 49t-50.5 130q0 51 20.5 90t53.5 59.5t68.5 30.5t71.5 10q66 0 136 -24v13q0 54 -31 87t-82 33q-76 0 -141 -70l-68 57q59 68 125 98t157 30q54 0 100.5 -11.5t85.5 -36t61.5 -68.5t22.5 -105v-356zM356 154v81
q-24 7 -51 7q-31 0 -54.5 -17.5t-23.5 -48.5q0 -26 16 -43t42 -17q21 0 35.5 9t35.5 29zM378 593l-256 195h190l120 -151z" />
    <glyph glyph-name="aacute" unicode="&#xe1;" horiz-adv-x="625" 
d="M586 0h-230v73q-34 -46 -73 -67.5t-95 -21.5q-81 0 -131.5 49t-50.5 130q0 51 20.5 90t53.5 59.5t68.5 30.5t71.5 10q66 0 136 -24v13q0 54 -31 87t-82 33q-76 0 -141 -70l-68 57q59 68 125 98t157 30q54 0 100.5 -11.5t85.5 -36t61.5 -68.5t22.5 -105v-356zM356 154v81
q-24 7 -51 7q-31 0 -54.5 -17.5t-23.5 -48.5q0 -26 16 -43t42 -17q21 0 35.5 9t35.5 29zM214 636l118 153h190l-252 -199z" />
    <glyph glyph-name="acircumflex" unicode="&#xe2;" horiz-adv-x="625" 
d="M586 0h-230v73q-34 -46 -73 -67.5t-95 -21.5q-81 0 -131.5 49t-50.5 130q0 51 20.5 90t53.5 59.5t68.5 30.5t71.5 10q66 0 136 -24v13q0 54 -31 87t-82 33q-76 0 -141 -70l-68 57q59 68 125 98t157 30q54 0 100.5 -11.5t85.5 -36t61.5 -68.5t22.5 -105v-356zM356 154v81
q-24 7 -51 7q-31 0 -54.5 -17.5t-23.5 -48.5q0 -26 16 -43t42 -17q21 0 35.5 9t35.5 29zM122 638l108 156h173l113 -148l-56 -49l-140 120l-144 -120z" />
    <glyph glyph-name="atilde" unicode="&#xe3;" horiz-adv-x="625" 
d="M586 0h-230v73q-34 -46 -73 -67.5t-95 -21.5q-81 0 -131.5 49t-50.5 130q0 51 20.5 90t53.5 59.5t68.5 30.5t71.5 10q66 0 136 -24v13q0 54 -31 87t-82 33q-76 0 -141 -70l-68 57q59 68 125 98t157 30q54 0 100.5 -11.5t85.5 -36t61.5 -68.5t22.5 -105v-356zM356 154v81
q-24 7 -51 7q-31 0 -54.5 -17.5t-23.5 -48.5q0 -26 16 -43t42 -17q21 0 35.5 9t35.5 29zM143 625l-58 50q11 19 20 31.5t29 33.5t50 32t67 11q40 0 91.5 -18.5t71.5 -18.5q40 0 78 38l55 -51q-4 -11 -10 -23t-19 -29t-29.5 -29.5t-43.5 -21.5t-58 -9q-41 0 -95 21t-73 21
q-35 0 -76 -38z" />
    <glyph glyph-name="adieresis" unicode="&#xe4;" horiz-adv-x="625" 
d="M586 0h-230v73q-34 -46 -73 -67.5t-95 -21.5q-81 0 -131.5 49t-50.5 130q0 51 20.5 90t53.5 59.5t68.5 30.5t71.5 10q66 0 136 -24v13q0 54 -31 87t-82 33q-76 0 -141 -70l-68 57q59 68 125 98t157 30q54 0 100.5 -11.5t85.5 -36t61.5 -68.5t22.5 -105v-356zM356 154v81
q-24 7 -51 7q-31 0 -54.5 -17.5t-23.5 -48.5q0 -26 16 -43t42 -17q21 0 35.5 9t35.5 29zM175 783q58 0 88.5 -28.5t30.5 -56.5t-30.5 -56.5t-88.5 -28.5q-57 0 -88 27.5t-31 57.5q0 28 30.5 56.5t88.5 28.5zM503 783q58 0 88.5 -28.5t30.5 -56.5t-30.5 -56.5t-88.5 -28.5
q-57 0 -88 27.5t-31 57.5q0 28 30.5 56.5t88.5 28.5z" />
    <glyph glyph-name="aring" unicode="&#xe5;" horiz-adv-x="625" 
d="M586 0h-230v73q-34 -46 -73 -67.5t-95 -21.5q-81 0 -131.5 49t-50.5 130q0 51 20.5 90t53.5 59.5t68.5 30.5t71.5 10q66 0 136 -24v13q0 54 -31 87t-82 33q-76 0 -141 -70l-68 57q59 68 125 98t157 30q54 0 100.5 -11.5t85.5 -36t61.5 -68.5t22.5 -105v-356zM356 154v81
q-24 7 -51 7q-31 0 -54.5 -17.5t-23.5 -48.5q0 -26 16 -43t42 -17q21 0 35.5 9t35.5 29zM401 706q0 18 -19 30.5t-44 12.5q-24 0 -43 -12t-19 -31q0 -18 17 -31t45 -13q30 0 46.5 14t16.5 30zM469 706q0 -36 -35.5 -64.5t-93.5 -28.5q-56 0 -93 27.5t-37 65.5q0 40 39 66
t91 26q55 0 92 -27.5t37 -64.5z" />
    <glyph glyph-name="ae" unicode="&#xe6;" horiz-adv-x="979" 
d="M963 223h-382q6 -58 47 -90.5t98 -32.5q47 0 82 17.5t73 54.5l61 -52q-55 -76 -122.5 -109t-154.5 -33q-73 0 -136 23.5t-99 67.5q-101 -91 -218 -91q-100 0 -153.5 53.5t-53.5 123.5q0 89 62.5 136t157.5 47h129v7q0 55 -31 85t-81 30q-74 0 -138 -67l-70 59
q108 124 278 124q107 0 180 -44q85 41 164 41q141 0 224 -92t83 -248v-10zM574 338h167q-4 111 -79 111q-42 0 -65 -34t-23 -77zM385 139q-17 44 -24 84h-38q-20 0 -34 -1.5t-29.5 -7t-23.5 -17.5t-8 -31q0 -28 22 -44.5t51 -16.5q24 0 41 8t43 26z" />
    <glyph glyph-name="ccedilla" unicode="&#xe7;" horiz-adv-x="583" 
d="M526 174l64 -46q-37 -69 -101.5 -106.5t-143.5 -40.5v-24q114 -21 114 -103q0 -45 -39 -82.5t-116 -37.5q-52 0 -128 20l21 82q43 -13 68 -13q14 0 24.5 3.5t15 8t7 10.5t3 9t0.5 5q0 37 -54 37q-15 0 -21 -1q0 6 0.5 42.5t0.5 53.5q-72 19 -122.5 69t-70.5 104t-20 107
q0 132 89.5 216t221.5 84q81 0 148 -37t103 -107l-65 -46q-30 32 -56 47t-65 15q-65 0 -102 -48t-37 -115q0 -71 34 -122.5t102 -51.5q69 0 125 68z" />
    <glyph glyph-name="egrave" unicode="&#xe8;" horiz-adv-x="646" 
d="M630 228h-373q6 -61 46.5 -91.5t98.5 -30.5q44 0 77.5 18t69.5 53l61 -52q-102 -141 -271 -141q-137 0 -224 79t-87 215q0 132 83 214.5t215 82.5q135 0 219.5 -82.5t84.5 -235.5v-29zM249 342h161q-4 110 -79 110q-73 0 -82 -110zM388 593l-256 195h190l120 -151z" />
    <glyph glyph-name="eacute" unicode="&#xe9;" horiz-adv-x="646" 
d="M630 228h-373q6 -61 46.5 -91.5t98.5 -30.5q44 0 77.5 18t69.5 53l61 -52q-102 -141 -271 -141q-137 0 -224 79t-87 215q0 132 83 214.5t215 82.5q135 0 219.5 -82.5t84.5 -235.5v-29zM249 342h161q-4 110 -79 110q-73 0 -82 -110zM225 636l118 153h190l-252 -199z" />
    <glyph glyph-name="ecircumflex" unicode="&#xea;" horiz-adv-x="646" 
d="M630 228h-373q6 -61 46.5 -91.5t98.5 -30.5q44 0 77.5 18t69.5 53l61 -52q-102 -141 -271 -141q-137 0 -224 79t-87 215q0 132 83 214.5t215 82.5q135 0 219.5 -82.5t84.5 -235.5v-29zM249 342h161q-4 110 -79 110q-73 0 -82 -110zM132 638l108 156h173l113 -148l-56 -49
l-140 120l-144 -120z" />
    <glyph glyph-name="edieresis" unicode="&#xeb;" horiz-adv-x="646" 
d="M630 228h-373q6 -61 46.5 -91.5t98.5 -30.5q44 0 77.5 18t69.5 53l61 -52q-102 -141 -271 -141q-137 0 -224 79t-87 215q0 132 83 214.5t215 82.5q135 0 219.5 -82.5t84.5 -235.5v-29zM249 342h161q-4 110 -79 110q-73 0 -82 -110zM164 783q58 0 88.5 -28.5t30.5 -56.5
t-30.5 -56.5t-88.5 -28.5q-57 0 -88 27.5t-31 57.5q0 28 30.5 56.5t88.5 28.5zM492 783q58 0 88.5 -28.5t30.5 -56.5t-30.5 -56.5t-88.5 -28.5q-57 0 -88 27.5t-31 57.5q0 28 30.5 56.5t88.5 28.5z" />
    <glyph glyph-name="igrave" unicode="&#xec;" horiz-adv-x="333" 
d="M281 0h-230v547h230v-547zM227 593l-256 195h190l120 -151z" />
    <glyph glyph-name="iacute" unicode="&#xed;" horiz-adv-x="333" 
d="M281 0h-230v547h230v-547zM63 636l118 153h190l-252 -199z" />
    <glyph glyph-name="icircumflex" unicode="&#xee;" horiz-adv-x="333" 
d="M281 0h-230v547h230v-547zM-29 638l108 156h173l113 -148l-56 -49l-140 120l-144 -120z" />
    <glyph glyph-name="idieresis" unicode="&#xef;" horiz-adv-x="333" 
d="M281 0h-230v547h230v-547zM3 783q58 0 88.5 -28.5t30.5 -56.5t-30.5 -56.5t-88.5 -28.5q-57 0 -88 27.5t-31 57.5q0 28 30.5 56.5t88.5 28.5zM331 783q58 0 88.5 -28.5t30.5 -56.5t-30.5 -56.5t-88.5 -28.5q-57 0 -88 27.5t-31 57.5q0 28 30.5 56.5t88.5 28.5z" />
    <glyph glyph-name="eth" unicode="&#xf0;" horiz-adv-x="708" 
d="M559 747l40 -66l-73 -22q65 -65 106 -160t41 -184q0 -37 -7.5 -76.5t-30 -87t-57.5 -84t-96.5 -61.5t-140.5 -25q-133 0 -223.5 78.5t-90.5 208.5q0 134 73 208t170 74q38 0 71 -14q-16 24 -44 55l-137 -41l-39 63l114 35q-26 18 -39 28l225 69q28 -18 41 -28zM434 273
q0 93 -19.5 137t-63.5 44q-41 0 -62 -45.5t-21 -124.5q0 -180 82 -180q84 0 84 169z" />
    <glyph glyph-name="ntilde" unicode="&#xf1;" 
d="M636 0h-230v340q0 33 -15 54.5t-46 21.5q-34 0 -67 -38v-378h-227v547h227v-74q40 49 81.5 72.5t100.5 23.5q80 0 128 -45.5t48 -124.5v-399zM169 625l-58 50q11 19 20 31.5t29 33.5t50 32t67 11q40 0 91.5 -18.5t71.5 -18.5q40 0 78 38l55 -51q-4 -11 -10 -23t-19 -29
t-29.5 -29.5t-43.5 -21.5t-58 -9q-41 0 -95 21t-73 21q-35 0 -76 -38z" />
    <glyph glyph-name="ograve" unicode="&#xf2;" horiz-adv-x="708" 
d="M676 276q0 -37 -9.5 -75t-33.5 -79t-60 -72.5t-95.5 -51.5t-133.5 -20q-136 0 -225.5 80.5t-89.5 214.5q0 137 91.5 218t230.5 81q72 0 130.5 -20.5t93.5 -51.5t59 -72t33 -78.5t9 -73.5zM437 270q0 93 -20 137t-64 44q-41 0 -62 -45.5t-21 -124.5q0 -180 83 -180
q84 0 84 169zM414 593l-256 195h190l120 -151z" />
    <glyph glyph-name="oacute" unicode="&#xf3;" horiz-adv-x="708" 
d="M676 276q0 -37 -9.5 -75t-33.5 -79t-60 -72.5t-95.5 -51.5t-133.5 -20q-136 0 -225.5 80.5t-89.5 214.5q0 137 91.5 218t230.5 81q72 0 130.5 -20.5t93.5 -51.5t59 -72t33 -78.5t9 -73.5zM437 270q0 93 -20 137t-64 44q-41 0 -62 -45.5t-21 -124.5q0 -180 83 -180
q84 0 84 169zM251 636l118 153h190l-252 -199z" />
    <glyph glyph-name="ocircumflex" unicode="&#xf4;" horiz-adv-x="708" 
d="M676 276q0 -37 -9.5 -75t-33.5 -79t-60 -72.5t-95.5 -51.5t-133.5 -20q-136 0 -225.5 80.5t-89.5 214.5q0 137 91.5 218t230.5 81q72 0 130.5 -20.5t93.5 -51.5t59 -72t33 -78.5t9 -73.5zM437 270q0 93 -20 137t-64 44q-41 0 -62 -45.5t-21 -124.5q0 -180 83 -180
q84 0 84 169zM158 638l108 156h173l113 -148l-56 -49l-140 120l-144 -120z" />
    <glyph glyph-name="otilde" unicode="&#xf5;" horiz-adv-x="708" 
d="M676 276q0 -37 -9.5 -75t-33.5 -79t-60 -72.5t-95.5 -51.5t-133.5 -20q-136 0 -225.5 80.5t-89.5 214.5q0 137 91.5 218t230.5 81q72 0 130.5 -20.5t93.5 -51.5t59 -72t33 -78.5t9 -73.5zM437 270q0 93 -20 137t-64 44q-41 0 -62 -45.5t-21 -124.5q0 -180 83 -180
q84 0 84 169zM180 625l-58 50q11 19 20 31.5t29 33.5t50 32t67 11q40 0 91.5 -18.5t71.5 -18.5q40 0 78 38l55 -51q-4 -11 -10 -23t-19 -29t-29.5 -29.5t-43.5 -21.5t-58 -9q-41 0 -95 21t-73 21q-35 0 -76 -38z" />
    <glyph glyph-name="odieresis" unicode="&#xf6;" horiz-adv-x="708" 
d="M676 276q0 -37 -9.5 -75t-33.5 -79t-60 -72.5t-95.5 -51.5t-133.5 -20q-136 0 -225.5 80.5t-89.5 214.5q0 137 91.5 218t230.5 81q72 0 130.5 -20.5t93.5 -51.5t59 -72t33 -78.5t9 -73.5zM437 270q0 93 -20 137t-64 44q-41 0 -62 -45.5t-21 -124.5q0 -180 83 -180
q84 0 84 169zM188 783q58 0 88.5 -28.5t30.5 -56.5t-30.5 -56.5t-88.5 -28.5q-57 0 -88 27.5t-31 57.5q0 28 30.5 56.5t88.5 28.5zM516 783q58 0 88.5 -28.5t30.5 -56.5t-30.5 -56.5t-88.5 -28.5q-57 0 -88 27.5t-31 57.5q0 28 30.5 56.5t88.5 28.5z" />
    <glyph glyph-name="divide" unicode="&#xf7;" horiz-adv-x="724" 
d="M644 249h-565v168h565v-168zM481 550q0 -43 -34 -72t-84 -29q-53 0 -87 28.5t-34 73.5q0 44 34 72.5t86 28.5q50 0 84.5 -29.5t34.5 -72.5zM481 116q0 -43 -34 -72t-84 -29q-53 0 -87 28.5t-34 72.5t34 73t86 29q50 0 84.5 -29.5t34.5 -72.5z" />
    <glyph glyph-name="oslash" unicode="&#xf8;" horiz-adv-x="708" 
d="M633 595l61 -63l-80 -75q61 -69 61 -179q0 -53 -18 -103.5t-55 -95.5t-102.5 -72t-150.5 -27q-104 0 -194 56l-86 -80l-62 64l82 76q-32 50 -46 89t-14 93q0 132 93 213t226 81q126 0 201 -55zM255 247l169 156q-14 26 -30 38t-44 12q-23 0 -40 -8t-26.5 -24.5t-16 -32.5
t-9 -40.5t-3 -39t-0.5 -37.5v-24zM447 303l-169 -154q15 -26 31 -38t44 -12q95 0 95 160q0 29 -1 44z" />
    <glyph glyph-name="ugrave" unicode="&#xf9;" 
d="M634 0h-230v77q-69 -91 -169 -91q-84 0 -135 50t-51 142v369h227v-341q0 -33 14.5 -54.5t46.5 -21.5q33 0 67 38v379h230v-547zM404 593l-256 195h190l120 -151z" />
    <glyph glyph-name="uacute" unicode="&#xfa;" 
d="M634 0h-230v77q-69 -91 -169 -91q-84 0 -135 50t-51 142v369h227v-341q0 -33 14.5 -54.5t46.5 -21.5q33 0 67 38v379h230v-547zM240 636l118 153h190l-252 -199z" />
    <glyph glyph-name="ucircumflex" unicode="&#xfb;" 
d="M634 0h-230v77q-69 -91 -169 -91q-84 0 -135 50t-51 142v369h227v-341q0 -33 14.5 -54.5t46.5 -21.5q33 0 67 38v379h230v-547zM148 638l108 156h173l113 -148l-56 -49l-140 120l-144 -120z" />
    <glyph glyph-name="udieresis" unicode="&#xfc;" 
d="M634 0h-230v77q-69 -91 -169 -91q-84 0 -135 50t-51 142v369h227v-341q0 -33 14.5 -54.5t46.5 -21.5q33 0 67 38v379h230v-547zM181 783q58 0 88.5 -28.5t30.5 -56.5t-30.5 -56.5t-88.5 -28.5q-57 0 -88 27.5t-31 57.5q0 28 30.5 56.5t88.5 28.5zM509 783
q58 0 88.5 -28.5t30.5 -56.5t-30.5 -56.5t-88.5 -28.5q-57 0 -88 27.5t-31 57.5q0 28 30.5 56.5t88.5 28.5z" />
    <glyph glyph-name="yacute" unicode="&#xfd;" horiz-adv-x="562" 
d="M587 547l-213 -498q-60 -140 -138 -196t-227 -56h-25v86q41 3 71.5 15t54.5 37.5t38.5 47.5t38.5 64l-208 500h242l85 -280l98 280h183zM178 636l118 153h190l-252 -199z" />
    <glyph glyph-name="thorn" unicode="&#xfe;" horiz-adv-x="708" 
d="M51 706h229v-231q61 86 162 86q75 0 130 -42.5t80 -106t25 -137.5q0 -77 -24.5 -142.5t-81 -111t-135.5 -45.5q-96 0 -156 77v-210h-229v863zM280 388v-241q30 -22 61 -22q51 0 74 44t23 100t-21.5 98.5t-71.5 42.5q-28 0 -65 -22z" />
    <glyph glyph-name="ydieresis" unicode="&#xff;" horiz-adv-x="562" 
d="M587 547l-213 -498q-60 -140 -138 -196t-227 -56h-25v86q41 3 71.5 15t54.5 37.5t38.5 47.5t38.5 64l-208 500h242l85 -280l98 280h183zM117 783q58 0 88.5 -28.5t30.5 -56.5t-30.5 -56.5t-88.5 -28.5q-57 0 -88 27.5t-31 57.5q0 28 30.5 56.5t88.5 28.5zM445 783
q58 0 88.5 -28.5t30.5 -56.5t-30.5 -56.5t-88.5 -28.5q-57 0 -88 27.5t-31 57.5q0 28 30.5 56.5t88.5 28.5z" />
    <glyph glyph-name="dotlessi" unicode="&#x131;" horiz-adv-x="333" 
d="M281 0h-230v547h230v-547z" />
    <glyph glyph-name="Lslash" unicode="&#x141;" horiz-adv-x="604" 
d="M598 0h-541v119l-57 -58v166l57 58v421h261v-153l106 108v-166l-106 -108v-228h280v-159z" />
    <glyph glyph-name="lslash" unicode="&#x142;" horiz-adv-x="333" 
d="M333 462l-52 -54v-408h-229v173l-52 -53v162l52 52v372h229v-136l52 53v-161z" />
    <glyph glyph-name="OE" unicode="&#x152;" horiz-adv-x="1062" 
d="M1050 0h-471q-26 -3 -62 -7.5t-61.5 -7t-49.5 -2.5q-172 0 -274.5 102.5t-102.5 262.5q0 172 107 271.5t280 99.5q36 0 87 -6t69 -7h443v-159h-279v-111h231v-145h-231v-132h314v-159zM512 152v398q-40 22 -77 22q-44 0 -73 -21t-42 -58.5t-17 -70.5t-4 -76
q0 -219 127 -219q38 0 86 25z" />
    <glyph glyph-name="oe" unicode="&#x153;" horiz-adv-x="1062" 
d="M1046 226h-380q23 -122 148 -122q82 0 150 71l61 -52q-102 -140 -276 -140q-112 0 -197 55q-89 -58 -201 -58q-138 0 -230.5 84t-92.5 214q0 134 95.5 216t231.5 82q58 0 102 -12.5t95 -43.5q48 30 90.5 42.5t99.5 12.5q142 0 223 -91t81 -234v-24zM660 342h163
q-4 110 -78 110q-42 0 -63 -33t-22 -77zM437 288q0 164 -82 164q-86 0 -86 -179q0 -169 80 -169q25 0 42.5 14.5t26 32.5t13.5 47.5t5.5 47t0.5 42.5z" />
    <glyph glyph-name="Scaron" unicode="&#x160;" horiz-adv-x="646" 
d="M622 576l-101 -64q-30 41 -62 58.5t-80 17.5q-40 0 -72.5 -17t-32.5 -54q0 -30 26.5 -46t88.5 -28q43 -8 76.5 -17t69 -26t58 -39t37.5 -56.5t15 -77.5t-19 -85t-57.5 -79t-105 -59.5t-151.5 -22.5q-223 0 -313 172l100 62q39 -50 77.5 -74t94.5 -24q44 0 79.5 17.5
t35.5 57.5q0 31 -26 47.5t-92 30.5l-51 11q-200 43 -200 206q0 102 79.5 169t224.5 67q116 0 186 -36.5t115 -110.5zM520 899l-108 -156h-172l-114 147l56 49l140 -120l143 120z" />
    <glyph glyph-name="scaron" unicode="&#x161;" horiz-adv-x="562" 
d="M504 447l-70 -40q-24 32 -49 47t-62 15q-27 0 -49 -14.5t-22 -39.5q0 -18 13 -29.5t29.5 -17t51.5 -12.5q78 -16 128.5 -62.5t50.5 -119.5q0 -77 -66.5 -135.5t-199.5 -58.5q-94 0 -151 30t-104 105l75 46q61 -72 140 -72q42 0 61.5 18t19.5 36q0 27 -23.5 42t-78.5 28
q-166 39 -166 171q0 65 37.5 110t91.5 63.5t118 18.5q172 0 225 -129zM278 673l143 120l55 -41l-109 -156h-172l-113 149l56 48z" />
    <glyph glyph-name="Ydieresis" unicode="&#x178;" horiz-adv-x="729" 
d="M729 706l-250 -601q-74 -179 -160 -247.5t-237 -68.5h-57v101q88 5 140 46t93 128l-259 642h259l133 -398l142 398h196zM202 931q58 0 88.5 -28.5t30.5 -56.5t-30.5 -56.5t-88.5 -28.5q-57 0 -88 27.5t-31 57.5q0 28 30.5 56.5t88.5 28.5zM530 931q58 0 88.5 -28.5
t30.5 -56.5t-30.5 -56.5t-88.5 -28.5q-57 0 -88 27.5t-31 57.5q0 28 30.5 56.5t88.5 28.5z" />
    <glyph glyph-name="Zcaron" unicode="&#x17d;" 
d="M677 624l-316 -465h308v-159h-661v82l310 465h-280v159h639v-82zM541 899l-108 -156h-172l-114 147l56 49l140 -120l143 120z" />
    <glyph glyph-name="zcaron" unicode="&#x17e;" horiz-adv-x="521" 
d="M505 0h-502v90l209 324h-194v133h476v-92l-206 -326h217v-129zM257 673l143 120l55 -41l-109 -156h-172l-113 149l56 48z" />
    <glyph glyph-name="florin" unicode="&#x192;" horiz-adv-x="583" 
d="M577 675l-47 -68q-22 11 -41 11q-28 0 -47 -11t-28 -32.5t-13 -39.5t-6 -47h90l-15 -130h-90l-37 -311q-8 -74 -35 -124t-85 -80t-124 -30q-86 0 -145 44l50 74q15 -5 29 -5q69 0 80 102l38 330h-63l15 130h63q6 117 78.5 179t177.5 62q46 0 80 -12.5t75 -41.5z" />
    <glyph glyph-name="circumflex" unicode="&#x2c6;" horiz-adv-x="292" 
d="M-51 638l108 156h173l113 -148l-56 -49l-140 120l-144 -120z" />
    <glyph glyph-name="caron" unicode="&#x2c7;" horiz-adv-x="292" 
d="M145 673l143 120l55 -41l-109 -156h-172l-113 149l56 48z" />
    <glyph glyph-name="breve" unicode="&#x2d8;" horiz-adv-x="292" 
d="M234 769h75q-4 -44 -19 -75t-31.5 -46t-41.5 -23.5t-39.5 -10t-35.5 -1.5q-69 0 -109 34t-50 122h75q4 -14 7.5 -22t12.5 -20.5t26 -18.5t42 -6q26 0 44 7t26.5 20.5t11.5 21t6 18.5z" />
    <glyph glyph-name="dotaccent" unicode="&#x2d9;" horiz-adv-x="292" 
d="M146 783q58 0 88.5 -28.5t30.5 -56.5t-30.5 -56.5t-88.5 -28.5q-57 0 -88.5 27.5t-31.5 57.5q0 28 31 56.5t89 28.5z" />
    <glyph glyph-name="ring" unicode="&#x2da;" horiz-adv-x="292" 
d="M207 706q0 18 -19 30.5t-44 12.5q-24 0 -43 -12t-19 -31q0 -18 17 -31t45 -13q30 0 46.5 14t16.5 30zM275 706q0 -36 -35.5 -64.5t-93.5 -28.5q-56 0 -93 27.5t-37 65.5q0 40 39 66t91 26q55 0 92 -27.5t37 -64.5z" />
    <glyph glyph-name="ogonek" unicode="&#x2db;" horiz-adv-x="292" 
d="M95 7h127q-59 -76 -59 -123q0 -30 19 -53q22 -23 62 -23h15v-63q-40 -5 -67 -5q-15 0 -27.5 0.5t-39.5 7t-45 18t-33 35.5t-15 58q0 65 63 148z" />
    <glyph glyph-name="tilde" unicode="&#x2dc;" horiz-adv-x="292" 
d="M-27 625l-58 50q11 19 20 31.5t29 33.5t50 32t67 11q40 0 91.5 -18.5t71.5 -18.5q40 0 78 38l55 -51q-4 -11 -10 -23t-19 -29t-29.5 -29.5t-43.5 -21.5t-58 -9q-41 0 -95 21t-73 21q-35 0 -76 -38z" />
    <glyph glyph-name="hungarumlaut" unicode="&#x2dd;" horiz-adv-x="292" 
d="M-125 636l118 153h189l-251 -199zM110 636l118 153h190l-252 -199z" />
    <glyph glyph-name="endash" unicode="&#x2013;" horiz-adv-x="581" 
d="M25 356h531v-132h-531v132z" />
    <glyph glyph-name="emdash" unicode="&#x2014;" horiz-adv-x="825" 
d="M25 356h775v-132h-775v132z" />
    <glyph glyph-name="quoteleft" unicode="&#x2018;" horiz-adv-x="313" 
d="M272 689l-72 -333h-222l210 354z" />
    <glyph glyph-name="quoteright" unicode="&#x2019;" horiz-adv-x="313" 
d="M308 706l-209 -355l-84 21l71 334h222z" />
    <glyph glyph-name="quotesinglbase" unicode="&#x201a;" horiz-adv-x="313" 
d="M308 164l-209 -356l-84 22l71 334h222z" />
    <glyph glyph-name="quotedblleft" unicode="&#x201c;" horiz-adv-x="562" 
d="M536 683l-60 -296h-213l186 324zM271 685l-60 -298h-218l188 326z" />
    <glyph glyph-name="quotedblright" unicode="&#x201d;" horiz-adv-x="562" 
d="M552 706l-188 -326l-91 28l60 298h219zM282 706l-187 -323l-86 27l59 296h214z" />
    <glyph glyph-name="quotedblbase" unicode="&#x201e;" horiz-adv-x="562" 
d="M529 166l-189 -326l-90 28l61 298h218zM258 166l-187 -323l-85 27l59 296h213z" />
    <glyph glyph-name="dagger" unicode="&#x2020;" horiz-adv-x="562" 
d="M565 338h-165v-444h-242v444h-164v156h164v212h242v-212h165v-156z" />
    <glyph glyph-name="daggerdbl" unicode="&#x2021;" horiz-adv-x="562" 
d="M563 76h-162v-182h-241v182h-161v151h161v210h-161v150h161v117h241v-117h162v-150h-162v-210h162v-151z" />
    <glyph glyph-name="bullet" unicode="&#x2022;" horiz-adv-x="372" 
d="M340 344q0 -57 -43.5 -95.5t-108.5 -38.5q-69 0 -112.5 38t-43.5 97t44.5 98.5t111.5 39.5q64 0 108 -40.5t44 -98.5z" />
    <glyph glyph-name="ellipsis" unicode="&#x2026;" horiz-adv-x="1000" 
d="M242 69q0 -33 -21 -53t-54 -20t-54.5 20.5t-21.5 52.5t21.5 53t53.5 21q33 0 54.5 -21t21.5 -53zM576 70q0 -33 -21 -53.5t-54 -20.5t-54.5 21t-21.5 53t21.5 53t53.5 21q33 0 54.5 -21t21.5 -53zM908 69q0 -32 -20.5 -52.5t-54.5 -20.5q-32 0 -53.5 21t-21.5 53t21 53
t53 21q34 0 55 -21t21 -54z" />
    <glyph glyph-name="perthousand" unicode="&#x2030;" horiz-adv-x="1438" 
d="M701 706l-278 -706h-131l278 706h131zM410 485q0 -234 -193 -234q-102 0 -149.5 61.5t-47.5 169.5q0 72 16 122t45.5 75.5t62 36t74.5 10.5q192 0 192 -241zM265 479q0 97 -11.5 128t-38.5 31t-38.5 -36.5t-11.5 -125.5q0 -79 10 -108.5t40 -29.5t40 32.5t10 108.5z
M972 221q0 -234 -193 -234q-102 0 -149.5 61.5t-47.5 169.5q0 72 16 122t45.5 75.5t62 36t74.5 10.5q192 0 192 -241zM828 215q0 97 -11.5 128t-38.5 31t-38.5 -36.5t-11.5 -125.5q0 -79 10 -108.5t40 -29.5t40 32.5t10 108.5zM1412 221q0 -234 -193 -234
q-102 0 -149.5 61.5t-47.5 169.5q0 72 16 122t45.5 75.5t62 36t74.5 10.5q192 0 192 -241zM1268 215q0 97 -11.5 128t-38.5 31t-38.5 -36.5t-11.5 -125.5q0 -79 10 -108.5t40 -29.5t40 32.5t10 108.5z" />
    <glyph glyph-name="guilsinglleft" unicode="&#x2039;" horiz-adv-x="250" 
d="M243 136h-149l-87 152l87 149h149l-87 -149z" />
    <glyph glyph-name="guilsinglright" unicode="&#x203a;" horiz-adv-x="250" 
d="M243 284l-87 -149h-149l87 149l-87 152h149z" />
    <glyph glyph-name="fraction" unicode="&#x2044;" horiz-adv-x="125" 
d="M267 706l-278 -706h-131l278 706h131z" />
    <glyph glyph-name="Euro" unicode="&#x20ac;" horiz-adv-x="755" 
d="M527 472v-89h-197q-1 -16 -1 -49h198v-89h-180q16 -47 54.5 -75t86.5 -28q40 0 75 17.5t76 61.5l74 -82q-104 -158 -293 -158q-131 0 -212 74t-103 190h-76v89h65q-1 6 -1 21q0 13 3 28h-67v89h84q14 52 49 104q100 147 273 147q87 0 152 -34t123 -117l-85 -75
q-32 44 -62.5 63t-72.5 19q-94 0 -142 -107h179z" />
    <glyph glyph-name="trademark" unicode="&#x2122;" horiz-adv-x="753" 
d="M6 706h287v-83h-75v-249h-131v249h-81v83zM336 706h105l65 -156l61 156h104l74 -332h-125l-33 147l-57 -147h-65l-57 146l-27 -146h-106z" />
    <glyph glyph-name="minus" unicode="&#x2212;" horiz-adv-x="724" 
d="M634 225h-544v177h544v-177z" />
    </font>
</defs>
</svg>
