<?xml version="1.0" standalone="no"?>
<!DOCTYPE svg PUBLIC "-//W3C//DTD SVG 1.1//EN" "http://www.w3.org/Graphics/SVG/1.1/DTD/svg11.dtd" >
<svg xmlns="http://www.w3.org/2000/svg" xmlns:xlink="http://www.w3.org/1999/xlink" version="1.1">
<metadata>
Created by FontForge 20170731 at Fri Oct  8 20:14:55 1999
 By Aleksey,,,
Copyright (c) 1989, 1995 Adobe Systems Incorporated.  All Rights Reserved.Folio is a registered trademark of Fundicion Tipografica Neufville S.A.
</metadata>
<defs>
<font id="Folio-Medium" horiz-adv-x="556" >
  <font-face 
    font-family="Folio Medium"
    font-weight="500"
    font-stretch="normal"
    units-per-em="1000"
    panose-1="2 11 6 0 0 0 0 0 0 0"
    ascent="750"
    descent="-250"
    x-height="464"
    cap-height="714"
    bbox="-167 -250 1003 954"
    underline-thickness="50"
    underline-position="-200"
    unicode-range="U+0020-FB02"
  />
<missing-glyph horiz-adv-x="278" 
 />
    <glyph glyph-name=".notdef" horiz-adv-x="278" 
 />
    <glyph glyph-name=".null" horiz-adv-x="0" 
 />
    <glyph glyph-name="nonmarkingreturn" horiz-adv-x="333" 
 />
    <glyph glyph-name="space" unicode=" " horiz-adv-x="278" 
 />
    <glyph glyph-name="space" unicode="&#xa0;" horiz-adv-x="278" 
 />
    <glyph glyph-name="exclam" unicode="!" horiz-adv-x="333" 
d="M94 714h145l-32 -515h-89zM226 126v-126h-118v126h118z" />
    <glyph glyph-name="quotedbl" unicode="&#x22;" horiz-adv-x="333" 
d="M55 444v270h82v-270h-82zM197 444v270h82v-270h-82z" />
    <glyph glyph-name="numbersign" unicode="#" 
d="M486 266v-60h-96l-29 -206h-69l30 206h-115l-29 -206h-69l29 206h-94v60h103l19 138h-96v60h104l28 206h70l-29 -206h114l28 206h70l-29 -206h88v-60h-97l-19 -138h88zM349 404h-114l-19 -138h113z" />
    <glyph glyph-name="dollar" unicode="$" 
d="M522 495h-120q-13 101 -127 101q-56 0 -91.5 -25.5t-35.5 -75.5q0 -36 29 -58t72 -30t94 -20.5t94 -29t72 -56.5t29 -100q0 -98 -65.5 -158.5t-163.5 -60.5v-117h-62v117q-97 0 -167.5 64.5t-70.5 161.5h122q0 -68 42.5 -101t102.5 -33q59 0 101.5 31t42.5 89
q0 38 -29 61t-72 31t-94 20.5t-94 28t-72 55t-29 100.5q0 92 64.5 145t152.5 53v95h62v-95q80 0 143 -54t70 -139z" />
    <glyph glyph-name="percent" unicode="%" horiz-adv-x="889" 
d="M638 703l53 -29l-396 -695l-54 23zM240 622q-56 0 -56 -117t56 -117t56 117t-56 117zM240 688q71 0 107.5 -53t36.5 -130t-36.5 -130t-107.5 -53t-107.5 53t-36.5 130t36.5 130t107.5 53zM700 290q-56 0 -56 -117t56 -117t56 117t-56 117zM700 356q71 0 107.5 -53
t36.5 -130t-36.5 -130t-107.5 -53t-107.5 53t-36.5 130t36.5 130t107.5 53z" />
    <glyph glyph-name="ampersand" unicode="&#x26;" horiz-adv-x="667" 
d="M361 377l119 -159q9 21 18 76h103q-22 -108 -57 -157l104 -137h-149l-35 51q-69 -68 -192 -73q-93 2 -156.5 59t-63.5 150q0 69 44.5 121.5t113.5 85.5q-64 69 -64 150q0 40 14.5 69t39.5 44.5t52.5 22.5t59.5 8q75 1 118.5 -36t43.5 -102q0 -110 -113 -173zM412 127
l-142 190q-82 -63 -82 -119q0 -52 30.5 -82t81.5 -30q56 0 112 41zM264 546q0 -36 44 -95q66 40 66 95q0 50 -61 50q-21 0 -35 -14t-14 -36z" />
    <glyph glyph-name="quotesingle" unicode="'" horiz-adv-x="222" 
d="M70 444v270h82v-270h-82z" />
    <glyph glyph-name="parenleft" unicode="(" horiz-adv-x="315" 
d="M299 714v-100q-122 0 -122 -257t122 -257v-100q-67 0 -117.5 31t-77.5 84t-40 113.5t-13 128.5t13 128.5t40 113.5t77.5 84t117.5 31z" />
    <glyph glyph-name="parenright" unicode=")" horiz-adv-x="315" 
d="M16 614v100q67 0 117.5 -31t77.5 -84t40 -113.5t13 -128.5t-13 -128.5t-40 -113.5t-77.5 -84t-117.5 -31v100q122 0 122 257t-122 257z" />
    <glyph glyph-name="asterisk" unicode="*" horiz-adv-x="407" 
d="M83 480l111 71v2h-135l-19 58l51 39l108 -86l1 2l-46 131l47 39l52 -39l-46 -131l1 -2l108 86l51 -39l-19 -58h-135v-2l111 -71l-21 -66h-60l-37 134h-2l-40 -134h-60z" />
    <glyph glyph-name="plus" unicode="+" horiz-adv-x="600" 
d="M262 270v194h76v-194h192v-76h-192v-194h-76v194h-192v76h192z" />
    <glyph glyph-name="comma" unicode="," horiz-adv-x="278" 
d="M80 126h118v-126q-3 -57 -41 -117h-60q45 45 48 117h-65v126z" />
    <glyph glyph-name="hyphen" unicode="-" horiz-adv-x="333" 
d="M53 286h227v-108h-227v108z" />
    <glyph glyph-name="hyphen" unicode="&#xad;" horiz-adv-x="333" 
d="M53 286h227v-108h-227v108z" />
    <glyph glyph-name="period" unicode="." horiz-adv-x="278" 
d="M198 126v-126h-118v126h118z" />
    <glyph glyph-name="slash" unicode="/" horiz-adv-x="389" 
d="M93 -22h-81l284 758h81z" />
    <glyph glyph-name="zero" unicode="0" 
d="M278 588q-61 0 -89 -57t-28 -196t28 -196t89 -57t89 57t28 196t-28 196t-89 57zM29 335q0 177 67 265t182 88t182 -88t67 -265t-67 -265t-182 -88t-182 88t-67 265z" />
    <glyph glyph-name="one" unicode="1" 
d="M178 431l-65 67l145 172h96v-670h-118v498h-2z" />
    <glyph glyph-name="two" unicode="2" 
d="M160 459h-122q6 117 68.5 173t165.5 56t170 -54.5t67 -153.5q0 -60 -39.5 -118.5t-88.5 -97t-103 -84t-74 -76.5h287v-104h-449q4 61 31 114t64 87.5t79.5 69.5t78 63.5t59 67t23.5 80.5q0 43 -30 74.5t-77 31.5q-54 0 -82 -36.5t-28 -92.5z" />
    <glyph glyph-name="three" unicode="3" 
d="M164 490h-125q22 198 234 198q97 0 166 -47t69 -131q0 -53 -31.5 -93t-87.5 -49v-2q132 -30 132 -181q0 -106 -67 -154.5t-181 -48.5q-233 0 -248 203h126q0 -48 32 -75.5t83 -27.5q62 0 95.5 33t33.5 95q0 46 -34.5 75t-97.5 29q-8 0 -16.5 -0.5t-18.5 -1.5t-16 -1v95
q34 0 57.5 2t52.5 9.5t44.5 26t15.5 46.5q0 48 -30.5 73t-78.5 25q-97 0 -109 -98z" />
    <glyph glyph-name="four" unicode="4" 
d="M451 670v-385h85v-102h-85v-183h-118v185h-308v107l299 378h127zM333 285v249h-2l-188 -249h190z" />
    <glyph glyph-name="five" unicode="5" 
d="M72 306v364h404v-112h-286v-152q49 42 121 42q93 0 150 -70t57 -163q0 -96 -63.5 -164.5t-183.5 -68.5q-93 0 -159 48.5t-70 144.5h124q0 -45 26.5 -71t75.5 -26q56 0 90 34.5t34 105.5q0 69 -35.5 104.5t-79.5 35.5q-67 0 -97 -52h-108z" />
    <glyph glyph-name="six" unicode="6" 
d="M177 215q0 -58 28.5 -95.5t84.5 -37.5t84.5 37.5t28.5 95.5q0 61 -29 102t-84 41t-84 -41t-29 -102zM517 507h-123q-12 40 -31.5 60.5t-58.5 20.5q-43 0 -74.5 -26t-45.5 -65.5t-19.5 -77.5t-3.5 -71h2q31 55 66.5 77.5t87.5 22.5q29 0 56.5 -6.5t56.5 -23t50.5 -41.5
t35 -66t13.5 -93q0 -101 -67.5 -168.5t-167.5 -67.5q-30 0 -59 5.5t-66 26t-63.5 54t-45.5 96t-19 145.5q0 46 4.5 88.5t15.5 86.5t30.5 79.5t47 64t69 44.5t92.5 16q180 0 217 -181z" />
    <glyph glyph-name="seven" unicode="7" 
d="M47 670h459v-120q-92 -97 -142 -235.5t-78 -314.5h-132q30 159 88 292.5t161 259.5h-356v118z" />
    <glyph glyph-name="eight" unicode="8" 
d="M278 588h-2q-44 0 -73.5 -26.5t-29.5 -70.5q0 -45 30 -70t75 -25q44 0 74.5 25.5t30.5 69.5t-30.5 70.5t-74.5 26.5zM278 688q86 0 156.5 -49t70.5 -129q0 -130 -110 -155v-2q59 -13 92 -56t33 -105q0 -97 -66.5 -153.5t-175.5 -56.5t-175.5 56.5t-66.5 153.5
q0 62 33 105t92 56v2q-110 25 -110 155q0 80 70.5 129t156.5 49zM278 308h-2q-48 0 -80 -27.5t-32 -80.5q0 -59 30 -88.5t84 -29.5q53 0 83.5 30t30.5 88q0 53 -33 80.5t-81 27.5z" />
    <glyph glyph-name="nine" unicode="9" 
d="M379 455q0 58 -28.5 95.5t-84.5 37.5t-84.5 -37.5t-28.5 -95.5q0 -61 29 -102t84 -41t84 41t29 102zM39 163h123q12 -40 31.5 -60.5t58.5 -20.5q43 0 74.5 26t45.5 65.5t19.5 77.5t3.5 71h-2q-31 -55 -66.5 -77.5t-87.5 -22.5q-29 0 -56.5 6.5t-56.5 23t-50.5 41.5
t-35 66t-13.5 93q0 101 67.5 168.5t167.5 67.5q30 0 59 -5.5t66 -26t63.5 -54t45.5 -96t19 -145.5q0 -46 -4.5 -88.5t-15.5 -86.5t-30.5 -79.5t-47 -64t-69 -44.5t-92.5 -16q-180 0 -217 181z" />
    <glyph glyph-name="colon" unicode=":" horiz-adv-x="278" 
d="M198 126v-126h-118v126h118zM198 440v-126h-118v126h118z" />
    <glyph glyph-name="semicolon" unicode=";" horiz-adv-x="278" 
d="M80 126h118v-126q-3 -57 -41 -117h-60q45 45 48 117h-65v126zM198 440v-126h-118v126h118z" />
    <glyph glyph-name="less" unicode="&#x3c;" horiz-adv-x="600" 
d="M534 67v-76l-468 207v67l468 208v-76l-372 -165z" />
    <glyph glyph-name="equal" unicode="=" horiz-adv-x="600" 
d="M530 365v-76h-460v76h460zM530 175v-76h-460v76h460z" />
    <glyph glyph-name="greater" unicode="&#x3e;" horiz-adv-x="600" 
d="M66 -9v76l372 165l-372 165v76l468 -208v-67z" />
    <glyph glyph-name="question" unicode="?" 
d="M321 198h-118v70q0 45 15.5 79t37.5 54.5t43.5 38t37 41.5t15.5 54q0 85 -92 85q-43 0 -62.5 -28.5t-19.5 -71.5h-126q0 105 61.5 152.5t156.5 47.5q112 0 165 -48.5t53 -128.5q0 -45 -17 -80.5t-41.5 -58t-49.5 -42t-42 -43t-17 -50.5v-71zM321 126v-126h-118v126h118z
" />
    <glyph glyph-name="at" unicode="@" horiz-adv-x="800" 
d="M358 211q59 0 101.5 62t42.5 125q0 37 -24.5 64.5t-58.5 27.5q-60 0 -102.5 -59.5t-42.5 -123.5q0 -42 23.5 -69t60.5 -27zM532 493l19 60h73l-75 -276q-25 -73 10 -73q50 0 93 64t43 143q0 118 -80 187.5t-199 69.5q-132 0 -217.5 -90.5t-85.5 -223.5q0 -134 89 -221
t223 -87q68 0 130.5 27.5t105.5 76.5h73q-50 -81 -133 -126.5t-180 -45.5q-162 0 -274 109.5t-112 270.5q0 158 111.5 268t269.5 110q143 0 246 -88t103 -224q0 -68 -26 -125.5t-65 -92.5t-80 -54.5t-75 -19.5q-25 0 -42.5 16t-18.5 45h-2q-55 -61 -118 -61
q-65 0 -108.5 48.5t-43.5 116.5q0 105 65 188t164 83q80 0 117 -75z" />
    <glyph glyph-name="A" unicode="A" horiz-adv-x="648" 
d="M-20 0l286 714h128l275 -714h-140l-59 161h-288l-62 -161h-140zM328 556l-106 -291h209l-101 291h-2z" />
    <glyph glyph-name="B" unicode="B" horiz-adv-x="667" 
d="M70 0v714h311q215 0 215 -167q0 -47 -13.5 -80.5t-36 -49.5t-40 -22.5t-35.5 -9.5v-2q79 -8 124 -57t45 -133t-59 -138.5t-152 -54.5h-359zM196 104h170q74 0 106 28t32 82t-32.5 82.5t-93.5 28.5h-182v-221zM196 610v-181h156q116 0 118 91q1 47 -24.5 68.5t-84.5 21.5
h-165z" />
    <glyph glyph-name="C" unicode="C" horiz-adv-x="741" 
d="M706 494h-135q-22 66 -67.5 100.5t-109.5 33.5q-87 -1 -155.5 -73.5t-68.5 -197.5q0 -122 71 -196.5t165 -74.5q75 0 116.5 39t63.5 119h132q-17 -117 -106 -191.5t-207 -74.5q-158 0 -264.5 107.5t-106.5 271.5t106.5 271.5t264.5 107.5q109 0 191.5 -66.5t109.5 -175.5
z" />
    <glyph glyph-name="D" unicode="D" horiz-adv-x="759" 
d="M74 0v714h320q67 0 125.5 -21.5t104.5 -64t72.5 -112t26.5 -159.5t-26.5 -159.5t-72.5 -112t-104.5 -64t-125.5 -21.5h-320zM200 610v-506h132q122 0 189 65t66 188q1 123 -66 188t-189 65h-132z" />
    <glyph glyph-name="E" unicode="E" horiz-adv-x="574" 
d="M537 0h-467v714h460v-104h-334v-185h287v-104h-287v-217h341v-104z" />
    <glyph glyph-name="F" unicode="F" horiz-adv-x="537" 
d="M70 0v714h460v-104h-334v-185h287v-104h-287v-321h-126z" />
    <glyph glyph-name="G" unicode="G" horiz-adv-x="759" 
d="M699 492h-131q-29 140 -181 140q-97 0 -157 -72t-60 -203t60 -203t157 -72q146 0 201 154h-142v104h259v-340h-79l-13 109h-2q-68 -131 -249 -131q-58 0 -115.5 24t-105.5 68t-77.5 114t-29.5 154q0 187 97.5 292.5t270.5 105.5q122 0 201.5 -62.5t95.5 -181.5z" />
    <glyph glyph-name="H" unicode="H" horiz-adv-x="722" 
d="M71 0v714h126v-289h328v289h126v-714h-126v321h-328v-321h-126z" />
    <glyph glyph-name="I" unicode="I" horiz-adv-x="278" 
d="M202 0h-126v714h126v-714z" />
    <glyph glyph-name="J" unicode="J" horiz-adv-x="519" 
d="M328 714h126v-503q0 -108 -56.5 -170.5t-169.5 -62.5q-114 0 -170.5 62.5t-55.5 170.5h126q0 -63 26 -94t72 -31q102 0 102 125v503z" />
    <glyph glyph-name="K" unicode="K" horiz-adv-x="667" 
d="M70 714h126v-308l304 308h167l-258 -257l274 -457h-148l-217 372l-122 -121v-251h-126v714z" />
    <glyph glyph-name="L" unicode="L" 
d="M202 714v-610h338v-104h-464v714h126z" />
    <glyph glyph-name="M" unicode="M" horiz-adv-x="907" 
d="M712 0v564h-2l-206 -564h-104l-204 564h-2v-564h-126v714h194l190 -524l194 524h192v-714h-126z" />
    <glyph glyph-name="N" unicode="N" horiz-adv-x="759" 
d="M566 194v520h126v-714h-129l-367 515h-2v-515h-126v714h132l364 -520h2z" />
    <glyph glyph-name="O" unicode="O" horiz-adv-x="815" 
d="M644 357q0 122 -68 196.5t-169 74.5t-169 -74.5t-68 -196.5t68 -196.5t169 -74.5t169 74.5t68 196.5zM780 357q0 -164 -107 -271.5t-266 -107.5t-266 107.5t-107 271.5t107 271.5t266 107.5t266 -107.5t107 -271.5z" />
    <glyph glyph-name="P" unicode="P" horiz-adv-x="630" 
d="M196 610v-241h125q89 0 125 29t36 91t-36 91.5t-125 29.5h-125zM196 0h-126v714h286q133 0 195.5 -59t62.5 -165q0 -112 -72.5 -168.5t-227.5 -56.5h-118v-265z" />
    <glyph glyph-name="Q" unicode="Q" horiz-adv-x="815" 
d="M644 357q0 122 -68 196.5t-169 74.5t-169 -74.5t-68 -196.5t68 -196.5t169 -74.5t169 74.5t68 196.5zM580 -104v-108h-121q-62 0 -88.5 25.5t-26.5 73.5v95q-136 22 -223 125t-87 250q0 164 107 271.5t266 107.5t266 -107.5t107 -271.5q0 -146 -86.5 -249t-223.5 -125
v-39q0 -27 8.5 -37.5t32.5 -10.5h69z" />
    <glyph glyph-name="R" unicode="R" horiz-adv-x="648" 
d="M196 0h-126v714h316q99 0 156 -46.5t57 -145.5q0 -75 -38.5 -113.5t-110.5 -52.5v-2q71 -3 103.5 -40t32.5 -108v-109q0 -57 40 -97h-154q-18 26 -18 94v92q1 77 -18.5 94t-105.5 17h-134v-297zM196 602v-197h137q65 0 99.5 26t34.5 71q0 47 -30.5 73.5t-80.5 26.5h-160z
" />
    <glyph glyph-name="S" unicode="S" horiz-adv-x="630" 
d="M16 234h132q0 -72 47 -109t120 -39q61 2 109 28.5t48 82.5q0 35 -24 57.5t-62.5 33.5t-85 19.5t-93 21t-85 32.5t-62.5 60t-24 97q0 108 79 163t193 55q118 0 199 -57.5t89 -187.5h-132q0 71 -41.5 104t-109.5 33q-72 0 -108.5 -27t-36.5 -70q0 -32 24 -52t62.5 -29.5
t85 -18t93 -21.5t85 -34t62.5 -62.5t24 -100.5q0 -114 -83.5 -174.5t-212.5 -60.5q-132 0 -211 63.5t-81 192.5z" />
    <glyph glyph-name="T" unicode="T" horiz-adv-x="519" 
d="M-2 606v108h523v-108h-199v-606h-126v606h-198z" />
    <glyph glyph-name="U" unicode="U" horiz-adv-x="722" 
d="M62 714h126v-478q0 -70 50.5 -110t122.5 -40t122.5 40t50.5 110v478h126v-484q0 -125 -83 -188.5t-216 -63.5t-216 63.5t-83 188.5v484z" />
    <glyph glyph-name="V" unicode="V" horiz-adv-x="648" 
d="M395 0h-133l-279 714h137l209 -542l199 542h137z" />
    <glyph glyph-name="W" unicode="W" horiz-adv-x="981" 
d="M332 0h-140l-188 714h134l131 -536h2l164 536h115l156 -535l2 -1l135 536h134l-199 -714h-134l-152 517h-2z" />
    <glyph glyph-name="X" unicode="X" 
d="M0 713h149l127 -237l134 238h145l-208 -342l232 -372h-154l-149 270l-156 -270h-144l226 372z" />
    <glyph glyph-name="Y" unicode="Y" horiz-adv-x="593" 
d="M236 0v259l-261 455h144l181 -331l174 331h144l-256 -455v-259h-126z" />
    <glyph glyph-name="Z" unicode="Z" horiz-adv-x="630" 
d="M612 0h-608v104l455 506h-421v104h585v-104l-458 -506h447v-104z" />
    <glyph glyph-name="bracketleft" unicode="[" horiz-adv-x="315" 
d="M206 100h85v-100h-203v714h203v-100h-85v-514z" />
    <glyph glyph-name="backslash" unicode="\" horiz-adv-x="278" 
d="M322 -22h-81l-284 758h81z" />
    <glyph glyph-name="bracketright" unicode="]" horiz-adv-x="315" 
d="M24 100h85v514h-85v100h203v-714h-203v100z" />
    <glyph glyph-name="asciicircum" unicode="^" horiz-adv-x="600" 
d="M141 256h-84l205 414h76l206 -414h-84l-161 328z" />
    <glyph glyph-name="underscore" unicode="_" horiz-adv-x="500" 
d="M500 -125h-500v50h500v-50z" />
    <glyph glyph-name="grave" unicode="`" horiz-adv-x="259" 
d="M-20 681h135l90 -144h-82z" />
    <glyph glyph-name="a" unicode="a" horiz-adv-x="519" 
d="M489 0h-127q-18 38 -15 76h-2q-49 -96 -152 -96q-75 0 -119 41.5t-44 112.5q0 54 23.5 86.5t58.5 42.5t75.5 15t75.5 6.5t58.5 14.5t23.5 41q0 58 -91 58q-33 0 -58.5 -15t-25.5 -45h-112q0 76 56.5 111t138.5 35q106 0 158 -50t52 -158v-186q0 -39 5.5 -57.5t20.5 -32.5
zM237 66q17 0 31.5 3.5t25.5 8.5t19 15.5t13.5 17.5t9 23t5.5 24t3 26.5t1 25.5v27v25h-2q-11 -21 -34.5 -33t-49 -16.5t-49 -11t-39 -22t-15.5 -43.5q0 -70 81 -70z" />
    <glyph glyph-name="b" unicode="b" 
d="M176 231q0 -38 9 -73t35 -63.5t66 -28.5q49 0 77.5 51.5t28.5 115.5t-28.5 114.5t-77.5 50.5q-31 0 -53.5 -16.5t-34 -43t-17 -53.5t-5.5 -54zM175 0h-113v714h118v-315h2q60 88 147 85q32 1 64.5 -15t61 -46t46 -80t17.5 -110q-1 -117 -60.5 -185t-128.5 -68
q-48 0 -90 24.5t-62 67.5h-2v-72z" />
    <glyph glyph-name="c" unicode="c" horiz-adv-x="519" 
d="M497 304h-117q-24 94 -103 94q-52 0 -82.5 -42t-30.5 -124q0 -81 31 -123.5t82 -42.5q40 0 63 20.5t37 63.5h118q-35 -170 -217 -170q-121 0 -180.5 66t-59.5 186q0 121 59.5 186.5t180.5 65.5q95 0 148.5 -44.5t70.5 -135.5z" />
    <glyph glyph-name="d" unicode="d" 
d="M380 231q0 27 -5.5 54t-17 53.5t-34 43t-53.5 16.5q-49 0 -77.5 -50.5t-28.5 -114.5t28.5 -115.5t77.5 -51.5q40 0 66 28.5t35 63.5t9 73zM494 0h-113v72h-2q-20 -43 -62 -67.5t-90 -24.5q-69 0 -128.5 68t-60.5 185q0 60 17.5 110t46 80t61 46t64.5 15q87 3 147 -85h2
v315h118v-714z" />
    <glyph glyph-name="e" unicode="e" horiz-adv-x="537" 
d="M491 206h-335q0 -58 27 -99t82 -41q39 0 66.5 21.5t33.5 59.5h118q-19 -88 -77.5 -127.5t-133.5 -39.5q-115 0 -174.5 71t-59.5 181q0 109 58.5 180.5t168.5 71.5q65 0 111 -21.5t71 -61t35.5 -88t8.5 -107.5zM161 292h215q-9 106 -102 106q-53 0 -78.5 -26.5
t-34.5 -79.5z" />
    <glyph glyph-name="f" unicode="f" horiz-adv-x="296" 
d="M192 464h112v-94h-112v-370h-118v370h-68v94h68v116q0 77 37 105.5t139 28.5q15 0 54 -3v-100q-17 3 -35 3q-44 0 -60.5 -16t-16.5 -58v-76z" />
    <glyph glyph-name="g" unicode="g" 
d="M381 464h112v-486q0 -98 -63.5 -147t-164.5 -49q-83 0 -142 38.5t-64 114.5h118q16 -59 89 -59q57 0 83 23.5t26 77.5v93h-2q-17 -41 -58.5 -65.5t-89.5 -24.5q-69 0 -127.5 68t-59.5 185q-1 118 60 185.5t137 65.5q100 -3 144 -89h2v69zM160 233q0 -64 28 -115t77 -52
q40 1 66 29.5t35 63t9 72.5q0 27 -5.5 54t-17 53.5t-34 43t-53.5 16.5q-49 0 -77 -50.5t-28 -114.5z" />
    <glyph glyph-name="h" unicode="h" 
d="M180 0h-118v714h114v-326h2q21 47 63.5 71.5t96.5 24.5q156 0 156 -178v-306h-118v294q0 104 -89 104q-49 0 -78 -35t-29 -92v-271z" />
    <glyph glyph-name="i" unicode="i" horiz-adv-x="259" 
d="M70 464h118v-464h-118v464zM188 558h-118v120h118v-120z" />
    <glyph glyph-name="j" unicode="j" horiz-adv-x="259" 
d="M8 -218v100h30q13 0 23 11t10 31v540h118v-566q0 -62 -34 -89t-88 -27h-59zM189 678v-120h-118v120h118z" />
    <glyph glyph-name="k" unicode="k" horiz-adv-x="500" 
d="M494 464l-165 -168l196 -296h-143l-137 223l-65 -63v-160h-118v714h118v-425l168 175h146z" />
    <glyph glyph-name="l" unicode="l" horiz-adv-x="259" 
d="M70 714h118v-714h-118v714z" />
    <glyph glyph-name="m" unicode="m" horiz-adv-x="815" 
d="M748 0h-118v291q0 107 -72 107q-44 0 -67.5 -39t-23.5 -93v-266h-118v291q0 107 -72 107q-44 0 -67.5 -39t-23.5 -93v-266h-118v464h111v-73h2q41 93 143 93q91 0 126 -93q58 93 155 93q64 0 103.5 -36t39.5 -103v-345z" />
    <glyph glyph-name="n" unicode="n" 
d="M180 0h-118v464h114v-76h2q21 47 63.5 71.5t96.5 24.5q156 0 156 -178v-306h-118v294q0 104 -89 104q-49 0 -78 -35t-29 -92v-271z" />
    <glyph glyph-name="o" unicode="o" 
d="M278 -20q-120 0 -179.5 66t-60.5 186q1 121 60 186.5t180 65.5q111 0 175.5 -68t64.5 -184q0 -115 -64.5 -183.5t-175.5 -68.5zM277 66q53 0 84 42t31 124q0 83 -31 125.5t-84 40.5q-51 2 -82 -40.5t-31 -125.5q0 -81 31 -123.5t82 -42.5z" />
    <glyph glyph-name="p" unicode="p" 
d="M176 233q0 -27 5.5 -54t17 -53.5t34 -43t53.5 -16.5q49 0 77.5 50.5t28.5 114.5t-28.5 115.5t-77.5 51.5q-40 0 -66 -28.5t-35 -63.5t-9 -73zM62 464h113v-72h2q20 43 62 67.5t90 24.5q69 0 128.5 -68t60.5 -185q0 -60 -17.5 -110t-46 -80t-61 -46t-64.5 -15
q-87 -3 -147 85h-2v-277h-118v676z" />
    <glyph glyph-name="q" unicode="q" 
d="M380 233q0 38 -9 73t-35 63.5t-66 28.5q-49 0 -77.5 -51.5t-28.5 -115.5t28.5 -114.5t77.5 -50.5q31 0 53.5 16.5t34 43t17 53.5t5.5 54zM381 464h113v-676h-118v277h-2q-60 -88 -147 -85q-32 -1 -64.5 15t-61 46t-46 80t-17.5 110q1 117 60.5 185t128.5 68
q48 0 90 -24.5t62 -67.5h2v72z" />
    <glyph glyph-name="r" unicode="r" horiz-adv-x="352" 
d="M62 0v464h112v-101h2q27 61 69 91t107 30v-110q-6 0 -20.5 1t-24.5 1q-55 0 -91 -38t-36 -110v-228h-118z" />
    <glyph glyph-name="s" unicode="s" horiz-adv-x="500" 
d="M30 138h118q0 -72 99 -72q44 0 71 15.5t27 40.5q0 22 -22 35.5t-55 18.5t-72 14.5t-72 22.5t-55 44t-22 78q0 73 64.5 111t143.5 38q83 0 140 -40.5t56 -115.5h-108q0 33 -25 51.5t-65 18.5q-34 0 -61 -14t-27 -44q0 -24 30.5 -36t74.5 -18t88 -17t74.5 -44t30.5 -89
q0 -44 -20.5 -76t-53.5 -48.5t-66.5 -24t-67.5 -7.5q-96 0 -157 38t-68 118v2z" />
    <glyph glyph-name="t" unicode="t" horiz-adv-x="315" 
d="M79 630h118v-166h111v-94h-111v-192q0 -50 11 -66t48 -16q7 0 14.5 0.5t17.5 1.5t15 1v-99q-14 0 -41.5 -2t-41.5 -2q-49 0 -77 7.5t-42.5 31t-18 51.5t-3.5 84v200h-63v94h63v166z" />
    <glyph glyph-name="u" unicode="u" 
d="M376 464h118v-464h-114v76h-2q-21 -47 -63.5 -71.5t-96.5 -24.5q-156 0 -156 178v306h118v-294q0 -104 89 -104q49 0 78 35t29 92v271z" />
    <glyph glyph-name="v" unicode="v" horiz-adv-x="481" 
d="M183 0l-184 464h128l109 -312h2l116 312h128l-192 -464h-107z" />
    <glyph glyph-name="w" unicode="w" horiz-adv-x="741" 
d="M153 0l-137 464h122l78 -317h2l1 5l101 312h101l106 -307l1 -5h2l73 312h122l-136 -464h-112l-106 314h-2l-104 -314h-112z" />
    <glyph glyph-name="x" unicode="x" horiz-adv-x="444" 
d="M-4 0l156 242l-144 222h139l75 -140l79 140h135l-144 -222l156 -242h-138l-90 156l-90 -156h-134z" />
    <glyph glyph-name="y" unicode="y" horiz-adv-x="500" 
d="M371 464h129l-204 -526q-35 -85 -77 -120.5t-128 -35.5q-31 4 -49 5v102q5 -1 46 -1q24 0 42.5 7.5t30 22.5t18 28.5t14.5 33t13 28.5l-206 456h130l130 -315z" />
    <glyph glyph-name="z" unicode="z" horiz-adv-x="463" 
d="M44 370v94h380v-92l-247 -278h251v-94h-393v97l240 273h-231z" />
    <glyph glyph-name="braceleft" unicode="{" horiz-adv-x="315" 
d="M18 334v46q26 -2 50 25.5t24 66.5v142q0 57 37.5 78.5t102.5 21.5h64v-100h-32q-30 0 -42 -16t-12 -49v-89q0 -27 -11 -48t-27.5 -32t-27 -15.5t-19.5 -6.5v-2q9 -2 19.5 -6.5t27 -15.5t27.5 -32t11 -48v-89q0 -33 12 -49t42 -16h32v-100h-64q-65 0 -102.5 21.5
t-37.5 78.5v142q0 39 -24 66.5t-50 25.5z" />
    <glyph glyph-name="bar" unicode="|" horiz-adv-x="222" 
d="M73 750h76v-1000h-76v1000z" />
    <glyph glyph-name="braceright" unicode="}" horiz-adv-x="315" 
d="M297 380v-46q-26 2 -50 -25.5t-24 -66.5v-142q0 -57 -37.5 -78.5t-102.5 -21.5h-64v100h32q30 0 42 16t12 49v89q0 27 11 48t27.5 32t27 15.5t19.5 6.5v2q-9 2 -19.5 6.5t-27 15.5t-27.5 32t-11 48v89q0 33 -12 49t-42 16h-32v100h64q65 0 102.5 -21.5t37.5 -78.5v-142
q0 -39 24 -66.5t50 -25.5z" />
    <glyph glyph-name="asciitilde" unicode="~" horiz-adv-x="600" 
d="M494 308l36 -62q-19 -27 -32 -42.5t-38 -29.5t-54 -14q-42 0 -102 33q-62 35 -115 35q-52 0 -83 -72l-36 62q43 86 124 86q39 0 111 -32q7 -3 21.5 -9.5t23 -10t20 -8t20.5 -6.5t17 -2q19 0 36 12t27 25t24 35z" />
    <glyph glyph-name="exclamdown" unicode="&#xa1;" horiz-adv-x="333" 
d="M239 -212h-145l32 514h89zM107 375v126h118v-126h-118z" />
    <glyph glyph-name="cent" unicode="&#xa2;" 
d="M246 484v98h58v-98q165 0 194 -176h-118q-10 44 -34.5 64t-71.5 20q-48 0 -78 -40t-30 -124q0 -78 30 -117t78 -39q83 0 106 82h117q-14 -74 -67.5 -124t-125.5 -50v-112h-58v112q-80 0 -143 72t-63 180t63 180t143 72z" />
    <glyph glyph-name="sterling" unicode="&#xa3;" 
d="M513 478h-113q-3 48 -31 83t-75 35q-45 0 -74 -26t-29 -71q0 -35 38 -134h129v-92h-99q7 -89 -65 -158l2 -2q18 6 49 6q20 0 61 -11.5t60 -11.5q28 0 40.5 21.5t12.5 52.5h116q0 -73 -37.5 -130.5t-107.5 -57.5q-31 0 -94 22.5t-99 22.5q-24 0 -71 -35l-69 84
q55 51 74.5 91.5t10.5 105.5h-105v92h66q-38 62 -38 135q0 80 66.5 134t157.5 54q202 0 224 -210z" />
    <glyph glyph-name="currency" unicode="&#xa4;" 
d="M25 130l55 58q-50 61 -50 146q0 96 52 148l-57 58l49 49l56 -56q59 50 151 50q86 0 143 -49l57 56l51 -51l-55 -55q49 -55 49 -148q0 -89 -49 -150l54 -56l-47 -47l-56 58q-57 -54 -148 -54q-93 0 -152 53l-55 -58zM281 507q-71 0 -120 -50.5t-49 -122.5q0 -71 49 -121
t119 -50q69 0 116.5 51t47.5 122q0 69 -47.5 120t-115.5 51z" />
    <glyph glyph-name="yen" unicode="&#xa5;" 
d="M329 0h-98v196h-183v92h168l-37 70h-131v92h83l-116 220h122l144 -287l138 287h122l-113 -220h84v-92h-132l-36 -70h168v-92h-183v-196z" />
    <glyph glyph-name="brokenbar" unicode="&#xa6;" horiz-adv-x="222" 
d="M73 675h76v-350h-76v350zM73 175h76v-350h-76v350z" />
    <glyph glyph-name="section" unicode="&#xa7;" 
d="M279 186q43 0 73.5 23.5t30.5 69.5t-30.5 69.5t-73.5 23.5t-74 -23.5t-31 -69.5t31 -69.5t74 -23.5zM94 -2h112q0 -32 19 -51.5t53 -19.5q27 0 46 20t19 51q0 27 -29.5 45t-71.5 31.5t-84.5 32.5t-72 59.5t-29.5 101.5q0 60 39 104t98 60v2q-42 9 -70.5 44.5t-28.5 77.5
q0 74 53 116t132 42t132 -42t53 -116h-112q-4 28 -23 47t-46 19q-71 0 -71 -66q0 -30 29.5 -48.5t72 -31t85 -30t72.5 -57.5t30 -100t-41 -108t-101 -55v-2q42 -9 72 -44.5t30 -77.5q-1 -83 -51 -125t-132 -42t-133 41.5t-51 121.5z" />
    <glyph glyph-name="dieresis" unicode="&#xa8;" horiz-adv-x="259" 
d="M98 549h-112v108h112v-108zM273 549h-112v108h112v-108z" />
    <glyph glyph-name="copyright" unicode="&#xa9;" horiz-adv-x="800" 
d="M401 -22q-103 0 -191 47.5t-141.5 135.5t-53.5 197q0 163 113.5 270.5t272.5 107.5q157 0 270.5 -107.5t113.5 -270.5q0 -164 -113 -272t-271 -108zM101 358q0 -134 86 -223t214 -89q127 0 212.5 89t85.5 223q0 132 -86 221t-212 89q-128 0 -214 -88.5t-86 -221.5z
M527 289h73q-14 -74 -65 -116.5t-121 -42.5q-99 0 -160 65t-61 164q0 101 59 165t159 64q74 0 125.5 -41t62.5 -116h-72q-8 40 -39.5 63.5t-76.5 23.5q-64 0 -100 -44t-36 -114q0 -67 38.5 -114.5t100.5 -47.5q45 0 76 25t37 66z" />
    <glyph glyph-name="ordfeminine" unicode="&#xaa;" horiz-adv-x="311" 
d="M304 398h-83q-12 24 -9 46h-2q-31 -58 -99 -58q-49 0 -77 25t-28 67q0 32 15 52t38 25.5t49 9t49 4t38 8.5t15 25q0 34 -59 34q-53 0 -53 -35h-74q0 46 36.5 66.5t89.5 20.5q69 0 103.5 -30t34.5 -94v-112q0 -40 16 -54zM140 438q13 0 23 2t17 7.5t12.5 9.5t8.5 14.5
t5 14.5t3 18t1 16.5v18v16.5h-2q-8 -15 -29 -23t-40.5 -9.5t-35 -12t-15.5 -30.5q0 -42 52 -42z" />
    <glyph glyph-name="guillemotleft" unicode="&#xab;" horiz-adv-x="463" 
d="M153 116l-105 116l105 115h104l-110 -115l110 -116h-104zM311 116l-105 116l105 115h104l-110 -115l110 -116h-104z" />
    <glyph glyph-name="logicalnot" unicode="&#xac;" horiz-adv-x="600" 
d="M454 99v190h-384v76h460v-266h-76z" />
    <glyph glyph-name="registered" unicode="&#xae;" horiz-adv-x="800" 
d="M401 -22q-103 0 -191 47.5t-141.5 135.5t-53.5 197q0 163 113.5 270.5t272.5 107.5q157 0 270.5 -107.5t113.5 -270.5q0 -164 -113 -272t-271 -108zM101 358q0 -134 86 -223t214 -89q127 0 212.5 89t85.5 223q0 132 -86 221t-212 89q-128 0 -214 -88.5t-86 -221.5z
M324 328v-188h-72v434h165q79 0 118.5 -30t39.5 -95q0 -106 -114 -118l121 -191h-77l-112 188h-69zM324 386h79q49 0 74.5 13t25.5 55q0 62 -94 62h-85v-130z" />
    <glyph glyph-name="macron" unicode="&#xaf;" horiz-adv-x="259" 
d="M274 571h-288v64h288v-64z" />
    <glyph glyph-name="macron" unicode="&#x2c9;" horiz-adv-x="259" 
d="M274 571h-288v64h288v-64z" />
    <glyph glyph-name="degree" unicode="&#xb0;" horiz-adv-x="400" 
d="M200 458q35 0 60.5 25.5t25.5 60.5t-25.5 60.5t-60.5 25.5t-60.5 -25.5t-25.5 -60.5t25.5 -60.5t60.5 -25.5zM56 544q0 60 42 102t102 42t102 -42t42 -102t-42 -102t-102 -42t-102 42t-42 102z" />
    <glyph glyph-name="plusminus" unicode="&#xb1;" horiz-adv-x="600" 
d="M262 332v132h76v-132h192v-76h-192v-135h-76v135h-192v76h192zM70 0v76h460v-76h-460z" />
    <glyph glyph-name="twosuperior" unicode="&#xb2;" horiz-adv-x="333" 
d="M98 551h-80q4 70 44.5 103.5t107.5 33.5q68 0 111 -34t43 -103q0 -38 -39.5 -77.5t-92 -77.5t-66.5 -57h186v-64h-291q3 43 26.5 79.5t55 60.5t62 45t52 45.5t21.5 51.5q0 30 -17.5 50.5t-51.5 20.5q-35 0 -53 -21.5t-18 -55.5z" />
    <glyph glyph-name="threesuperior" unicode="&#xb3;" horiz-adv-x="333" 
d="M99 569h-82q14 119 152 119q63 0 108 -28t45 -79q0 -32 -21 -56t-57 -29v-2q86 -18 86 -108q0 -122 -161 -122q-152 0 -161 122h82q0 -29 20.5 -45.5t53.5 -16.5q84 0 84 77q0 27 -22.5 44.5t-62.5 17.5q-12 0 -34 -2v57q111 0 111 51q0 29 -20 44t-51 15q-64 0 -70 -59z
" />
    <glyph glyph-name="acute" unicode="&#xb4;" horiz-adv-x="259" 
d="M279 681l-143 -144h-82l90 144h135z" />
    <glyph glyph-name="mu" unicode="&#xb5;" 
d="M376 464h118v-464h-114v76h-2q-20 -43 -60.5 -69.5t-98.5 -26.5q-27 0 -39 4v-196h-118v676h118v-294q0 -104 89 -104q49 0 78 35t29 92v271z" />
    <glyph glyph-name="mu" unicode="&#x3bc;" 
d="M376 464h118v-464h-114v76h-2q-20 -43 -60.5 -69.5t-98.5 -26.5q-27 0 -39 4v-196h-118v676h118v-294q0 -104 89 -104q49 0 78 35t29 92v271z" />
    <glyph glyph-name="paragraph" unicode="&#xb6;" horiz-adv-x="600" 
d="M243 -164v508q-96 0 -155 51t-59 131q0 97 61.5 142.5t171.5 45.5h260v-878h-82v814h-115v-814h-82z" />
    <glyph glyph-name="periodcentered" unicode="&#xb7;" horiz-adv-x="278" 
d="M86 232q0 21 16 37t37 16t37 -16t16 -37t-16 -37t-37 -16t-37 16t-16 37z" />
    <glyph glyph-name="periodcentered" unicode="&#x2219;" horiz-adv-x="278" 
d="M86 232q0 21 16 37t37 16t37 -16t16 -37t-16 -37t-37 -16t-37 16t-16 37z" />
    <glyph glyph-name="cedilla" unicode="&#xb8;" horiz-adv-x="259" 
d="M14 -200l18 40q40 -16 65 -16q60 0 60 40q0 36 -49 36q-10 0 -35 -7l-22 19l66 88h49l-44 -58l2 -2q12 4 24 4q37 0 64 -20.5t27 -55.5q0 -49 -37.5 -71.5t-90.5 -22.5q-47 0 -97 26z" />
    <glyph glyph-name="onesuperior" unicode="&#xb9;" horiz-adv-x="333" 
d="M111 534l-43 40l95 102h65v-401h-80v299h-1z" />
    <glyph glyph-name="ordmasculine" unicode="&#xba;" horiz-adv-x="334" 
d="M167 386q-79 0 -117.5 39.5t-38.5 111.5q0 151 156 151q73 0 114.5 -40.5t41.5 -110.5q0 -69 -42 -110t-114 -41zM166 438q34 0 54.5 25t20.5 74q0 50 -20.5 75t-54.5 24q-34 1 -53.5 -24t-19.5 -75q0 -49 20 -74t53 -25z" />
    <glyph glyph-name="guillemotright" unicode="&#xbb;" horiz-adv-x="463" 
d="M257 232l-105 -116h-104l110 116l-110 115h104zM415 232l-105 -116h-104l110 116l-110 115h104z" />
    <glyph glyph-name="onequarter" unicode="&#xbc;" horiz-adv-x="834" 
d="M138 -18l422 706h79l-422 -706h-79zM725 402v-232h57v-65h-57v-105h-80v106h-199v69l193 227h86zM645 170v150h-2l-121 -150h123zM101 534l-43 40l95 102h65v-401h-80v299h-1z" />
    <glyph glyph-name="onehalf" unicode="&#xbd;" horiz-adv-x="834" 
d="M119 -18l422 706h79l-422 -706h-79zM97 534l-43 40l95 102h65v-401h-80v299h-1zM553 276h-80q4 70 45 104t108 34q68 0 111 -34.5t43 -103.5q0 -38 -39.5 -77.5t-92 -78t-66.5 -58.5h186v-62h-291q3 43 26.5 79.5t55 60.5t62 45t52 45.5t21.5 51.5q0 29 -17.5 49.5
t-51.5 20.5q-35 0 -53.5 -21.5t-18.5 -54.5z" />
    <glyph glyph-name="threequarters" unicode="&#xbe;" horiz-adv-x="834" 
d="M198 -18l422 706h79l-422 -706h-79zM107 569h-82q14 119 152 119q63 0 108 -28t45 -79q0 -32 -20.5 -56t-57.5 -29v-2q87 -16 87 -109q0 -122 -162 -122q-152 0 -161 122h82q0 -29 21 -45.5t54 -16.5q84 0 84 77q0 28 -22.5 45.5t-63.5 17.5q-5 0 -16 -0.5t-17 -0.5v57
q22 0 37 1t34 5.5t29 15.5t10 28q0 29 -20 44t-51 15q-63 0 -70 -59zM735 402v-232h57v-65h-57v-105h-80v106h-199v69l193 227h86zM655 170v150h-2l-121 -150h123z" />
    <glyph glyph-name="questiondown" unicode="&#xbf;" 
d="M235 304h118v-70q0 -45 -15.5 -79t-37.5 -54.5t-43.5 -38t-37 -41.5t-15.5 -54q0 -85 92 -85q43 0 62.5 28.5t19.5 71.5h126q0 -105 -61.5 -152.5t-156.5 -47.5q-112 0 -165 48.5t-53 128.5q0 45 17 80.5t42 58t49.5 42t41.5 43t17 50.5v71zM235 375v126h118v-126h-118z
" />
    <glyph glyph-name="Agrave" unicode="&#xc0;" horiz-adv-x="648" 
d="M-20 0l286 714h128l275 -714h-140l-59 161h-288l-62 -161h-140zM328 556l-106 -291h209l-101 291h-2zM184 908h135l90 -144h-82z" />
    <glyph glyph-name="Aacute" unicode="&#xc1;" horiz-adv-x="648" 
d="M-20 0l286 714h128l275 -714h-140l-59 161h-288l-62 -161h-140zM328 556l-106 -291h209l-101 291h-2zM483 908l-143 -144h-82l90 144h135z" />
    <glyph glyph-name="Acircumflex" unicode="&#xc2;" horiz-adv-x="648" 
d="M-20 0l286 714h128l275 -714h-140l-59 161h-288l-62 -161h-140zM328 556l-106 -291h209l-101 291h-2zM263 764h-92l107 144h111l108 -144h-93l-70 89z" />
    <glyph glyph-name="Atilde" unicode="&#xc3;" horiz-adv-x="648" 
d="M-20 0l286 714h128l275 -714h-140l-59 161h-288l-62 -161h-140zM328 556l-106 -291h209l-101 291h-2zM453 894h56q-6 -46 -34 -81.5t-71 -35.5q-29 0 -78 19q-51 19 -68 19q-35 0 -46 -44h-56q6 46 34 81.5t71 35.5q29 0 78 -19q51 -19 68 -19q35 0 46 44z" />
    <glyph glyph-name="Adieresis" unicode="&#xc4;" horiz-adv-x="648" 
d="M-20 0l286 714h128l275 -714h-140l-59 161h-288l-62 -161h-140zM328 556l-106 -291h209l-101 291h-2zM302 776h-112v108h112v-108zM477 776h-112v108h112v-108z" />
    <glyph glyph-name="Aring" unicode="&#xc5;" horiz-adv-x="648" 
d="M-20 0l286 714h128l275 -714h-140l-59 161h-288l-62 -161h-140zM328 556l-106 -291h209l-101 291h-2zM333 748q-43 0 -73 30t-30 73t30 73t73 30t73 -30t30 -73t-30 -73t-73 -30zM333 910q-25 0 -42 -17.5t-17 -41.5q0 -25 17 -42t42 -17t42 17t17 42q0 24 -17 41.5
t-42 17.5z" />
    <glyph glyph-name="AE" unicode="&#xc6;" horiz-adv-x="981" 
d="M-26 0l503 714h458v-104h-318v-185h280v-104h-280v-217h323v-104h-449v161h-255l-108 -161h-154zM489 534l-181 -269h183v269h-2z" />
    <glyph glyph-name="Ccedilla" unicode="&#xc7;" horiz-adv-x="741" 
d="M706 494h-135q-22 66 -67.5 100.5t-109.5 33.5q-87 -1 -155.5 -73.5t-68.5 -197.5q0 -122 71 -196.5t165 -74.5q75 0 116.5 39t63.5 119h132q-16 -113 -101 -186.5t-198 -78.5l-28 -37l2 -2q12 4 24 4q37 0 64 -20.5t27 -55.5q0 -49 -37.5 -71.5t-90.5 -22.5
q-47 0 -97 26l18 40q40 -16 65 -16q60 0 60 40q0 36 -49 36q-11 0 -35 -7l-22 19l51 68q-147 12 -242 117t-95 260q0 164 106.5 271.5t264.5 107.5q109 0 191.5 -66.5t109.5 -175.5z" />
    <glyph glyph-name="Egrave" unicode="&#xc8;" horiz-adv-x="574" 
d="M537 0h-467v714h460v-104h-334v-185h287v-104h-287v-217h341v-104zM161 908h135l90 -144h-82z" />
    <glyph glyph-name="Eacute" unicode="&#xc9;" horiz-adv-x="574" 
d="M537 0h-467v714h460v-104h-334v-185h287v-104h-287v-217h341v-104zM460 908l-143 -144h-82l90 144h135z" />
    <glyph glyph-name="Ecircumflex" unicode="&#xca;" horiz-adv-x="574" 
d="M537 0h-467v714h460v-104h-334v-185h287v-104h-287v-217h341v-104zM240 764h-92l107 144h111l108 -144h-93l-70 89z" />
    <glyph glyph-name="Edieresis" unicode="&#xcb;" horiz-adv-x="574" 
d="M537 0h-467v714h460v-104h-334v-185h287v-104h-287v-217h341v-104zM279 776h-112v108h112v-108zM454 776h-112v108h112v-108z" />
    <glyph glyph-name="Igrave" unicode="&#xcc;" horiz-adv-x="278" 
d="M202 0h-126v714h126v-714zM-10 908h135l90 -144h-82z" />
    <glyph glyph-name="Iacute" unicode="&#xcd;" horiz-adv-x="278" 
d="M202 0h-126v714h126v-714zM289 908l-143 -144h-82l90 144h135z" />
    <glyph glyph-name="Icircumflex" unicode="&#xce;" horiz-adv-x="278" 
d="M202 0h-126v714h126v-714zM69 764h-92l107 144h111l108 -144h-93l-70 89z" />
    <glyph glyph-name="Idieresis" unicode="&#xcf;" horiz-adv-x="278" 
d="M202 0h-126v714h126v-714zM108 776h-112v108h112v-108zM283 776h-112v108h112v-108z" />
    <glyph glyph-name="Eth" unicode="&#xd0;" horiz-adv-x="759" 
d="M4 425h70v289h320q67 0 125.5 -21.5t104.5 -64t72.5 -112t26.5 -159.5t-26.5 -159.5t-72.5 -112t-104.5 -64t-125.5 -21.5h-320v321h-70v104zM200 425h209v-104h-209v-217h132q122 0 189 65t66 188q1 123 -66 188t-189 65h-132v-185z" />
    <glyph glyph-name="Ntilde" unicode="&#xd1;" horiz-adv-x="759" 
d="M566 194v520h126v-714h-129l-367 515h-2v-515h-126v714h132l364 -520h2zM499 894h56q-6 -46 -34 -81.5t-71 -35.5q-29 0 -78 19q-51 19 -68 19q-35 0 -46 -44h-56q6 46 34 81.5t71 35.5q29 0 78 -19q51 -19 68 -19q35 0 46 44z" />
    <glyph glyph-name="Ograve" unicode="&#xd2;" horiz-adv-x="815" 
d="M644 357q0 122 -68 196.5t-169 74.5t-169 -74.5t-68 -196.5t68 -196.5t169 -74.5t169 74.5t68 196.5zM780 357q0 -164 -107 -271.5t-266 -107.5t-266 107.5t-107 271.5t107 271.5t266 107.5t266 -107.5t107 -271.5zM258 908h135l90 -144h-82z" />
    <glyph glyph-name="Oacute" unicode="&#xd3;" horiz-adv-x="815" 
d="M644 357q0 122 -68 196.5t-169 74.5t-169 -74.5t-68 -196.5t68 -196.5t169 -74.5t169 74.5t68 196.5zM780 357q0 -164 -107 -271.5t-266 -107.5t-266 107.5t-107 271.5t107 271.5t266 107.5t266 -107.5t107 -271.5zM557 908l-143 -144h-82l90 144h135z" />
    <glyph glyph-name="Ocircumflex" unicode="&#xd4;" horiz-adv-x="815" 
d="M644 357q0 122 -68 196.5t-169 74.5t-169 -74.5t-68 -196.5t68 -196.5t169 -74.5t169 74.5t68 196.5zM780 357q0 -164 -107 -271.5t-266 -107.5t-266 107.5t-107 271.5t107 271.5t266 107.5t266 -107.5t107 -271.5zM337 764h-92l107 144h111l108 -144h-93l-70 89z" />
    <glyph glyph-name="Otilde" unicode="&#xd5;" horiz-adv-x="815" 
d="M644 357q0 122 -68 196.5t-169 74.5t-169 -74.5t-68 -196.5t68 -196.5t169 -74.5t169 74.5t68 196.5zM780 357q0 -164 -107 -271.5t-266 -107.5t-266 107.5t-107 271.5t107 271.5t266 107.5t266 -107.5t107 -271.5zM527 894h56q-6 -46 -34 -81.5t-71 -35.5q-29 0 -78 19
q-51 19 -68 19q-35 0 -46 -44h-56q6 46 34 81.5t71 35.5q29 0 78 -19q51 -19 68 -19q35 0 46 44z" />
    <glyph glyph-name="Odieresis" unicode="&#xd6;" horiz-adv-x="815" 
d="M644 357q0 122 -68 196.5t-169 74.5t-169 -74.5t-68 -196.5t68 -196.5t169 -74.5t169 74.5t68 196.5zM780 357q0 -164 -107 -271.5t-266 -107.5t-266 107.5t-107 271.5t107 271.5t266 107.5t266 -107.5t107 -271.5zM376 776h-112v108h112v-108zM551 776h-112v108h112
v-108z" />
    <glyph glyph-name="multiply" unicode="&#xd7;" horiz-adv-x="600" 
d="M244 232l-174 176l57 56l172 -176l175 176l56 -56l-174 -176l174 -176l-56 -56l-175 177l-172 -177l-57 56z" />
    <glyph glyph-name="Oslash" unicode="&#xd8;" horiz-adv-x="815" 
d="M599 522l-343 -379q63 -57 151 -57q101 0 169 74.5t68 196.5q0 98 -45 165zM218 186l345 381q-64 61 -156 61q-101 0 -169 -74.5t-68 -196.5q0 -100 48 -171zM99 -31l-44 37l79 87q-100 108 -100 264q0 164 107 271.5t266 107.5q138 0 236 -81l77 86l44 -37l-80 -88
q96 -105 96 -259q0 -164 -107 -271.5t-266 -107.5q-129 0 -230 77z" />
    <glyph glyph-name="Ugrave" unicode="&#xd9;" horiz-adv-x="722" 
d="M62 714h126v-478q0 -70 50.5 -110t122.5 -40t122.5 40t50.5 110v478h126v-484q0 -125 -83 -188.5t-216 -63.5t-216 63.5t-83 188.5v484zM212 908h135l90 -144h-82z" />
    <glyph glyph-name="Uacute" unicode="&#xda;" horiz-adv-x="722" 
d="M62 714h126v-478q0 -70 50.5 -110t122.5 -40t122.5 40t50.5 110v478h126v-484q0 -125 -83 -188.5t-216 -63.5t-216 63.5t-83 188.5v484zM511 908l-143 -144h-82l90 144h135z" />
    <glyph glyph-name="Ucircumflex" unicode="&#xdb;" horiz-adv-x="722" 
d="M62 714h126v-478q0 -70 50.5 -110t122.5 -40t122.5 40t50.5 110v478h126v-484q0 -125 -83 -188.5t-216 -63.5t-216 63.5t-83 188.5v484zM291 764h-92l107 144h111l108 -144h-93l-70 89z" />
    <glyph glyph-name="Udieresis" unicode="&#xdc;" horiz-adv-x="722" 
d="M62 714h126v-478q0 -70 50.5 -110t122.5 -40t122.5 40t50.5 110v478h126v-484q0 -125 -83 -188.5t-216 -63.5t-216 63.5t-83 188.5v484zM330 776h-112v108h112v-108zM505 776h-112v108h112v-108z" />
    <glyph glyph-name="Yacute" unicode="&#xdd;" horiz-adv-x="593" 
d="M236 0v259l-261 455h144l181 -331l174 331h144l-256 -455v-259h-126zM446 908l-143 -144h-82l90 144h135z" />
    <glyph glyph-name="Thorn" unicode="&#xde;" horiz-adv-x="630" 
d="M196 495v-241h125q92 0 126.5 28t34.5 92t-34.5 92.5t-126.5 28.5h-125zM196 0h-126v714h126v-115h161q132 0 194.5 -59t62.5 -165t-62.5 -165t-194.5 -60h-161v-150z" />
    <glyph glyph-name="germandbls" unicode="&#xdf;" horiz-adv-x="593" 
d="M183 0h-118v532q0 98 53 148t168 50q39 0 75 -7.5t69 -24.5t53 -48.5t20 -73.5q0 -52 -42 -90.5t-92 -37.5v-2q91 -17 136 -69.5t45 -146.5q0 -244 -221 -244q-29 0 -70 9v88q21 -7 45 -7q116 0 120 157q2 82 -40 126.5t-125 44.5v84q4 0 17 -2t20 -2q34 0 61.5 20.5
t27.5 55.5q0 38 -26 62t-63 24q-53 0 -83 -31.5t-30 -92.5v-522z" />
    <glyph glyph-name="agrave" unicode="&#xe0;" horiz-adv-x="519" 
d="M489 0h-127q-18 38 -15 76h-2q-49 -96 -152 -96q-75 0 -119 41.5t-44 112.5q0 54 23.5 86.5t58.5 42.5t75.5 15t75.5 6.5t58.5 14.5t23.5 41q0 58 -91 58q-33 0 -58.5 -15t-25.5 -45h-112q0 76 56.5 111t138.5 35q106 0 158 -50t52 -158v-186q0 -39 5.5 -57.5t20.5 -32.5
zM237 66q17 0 31.5 3.5t25.5 8.5t19 15.5t13.5 17.5t9 23t5.5 24t3 26.5t1 25.5v27v25h-2q-11 -21 -34.5 -33t-49 -16.5t-49 -11t-39 -22t-15.5 -43.5q0 -70 81 -70zM110 681h135l90 -144h-82z" />
    <glyph glyph-name="aacute" unicode="&#xe1;" horiz-adv-x="519" 
d="M489 0h-127q-18 38 -15 76h-2q-49 -96 -152 -96q-75 0 -119 41.5t-44 112.5q0 54 23.5 86.5t58.5 42.5t75.5 15t75.5 6.5t58.5 14.5t23.5 41q0 58 -91 58q-33 0 -58.5 -15t-25.5 -45h-112q0 76 56.5 111t138.5 35q106 0 158 -50t52 -158v-186q0 -39 5.5 -57.5t20.5 -32.5
zM237 66q17 0 31.5 3.5t25.5 8.5t19 15.5t13.5 17.5t9 23t5.5 24t3 26.5t1 25.5v27v25h-2q-11 -21 -34.5 -33t-49 -16.5t-49 -11t-39 -22t-15.5 -43.5q0 -70 81 -70zM409 681l-143 -144h-82l90 144h135z" />
    <glyph glyph-name="acircumflex" unicode="&#xe2;" horiz-adv-x="519" 
d="M489 0h-127q-18 38 -15 76h-2q-49 -96 -152 -96q-75 0 -119 41.5t-44 112.5q0 54 23.5 86.5t58.5 42.5t75.5 15t75.5 6.5t58.5 14.5t23.5 41q0 58 -91 58q-33 0 -58.5 -15t-25.5 -45h-112q0 76 56.5 111t138.5 35q106 0 158 -50t52 -158v-186q0 -39 5.5 -57.5t20.5 -32.5
zM237 66q17 0 31.5 3.5t25.5 8.5t19 15.5t13.5 17.5t9 23t5.5 24t3 26.5t1 25.5v27v25h-2q-11 -21 -34.5 -33t-49 -16.5t-49 -11t-39 -22t-15.5 -43.5q0 -70 81 -70zM189 537h-92l107 144h111l108 -144h-93l-70 89z" />
    <glyph glyph-name="atilde" unicode="&#xe3;" horiz-adv-x="519" 
d="M489 0h-127q-18 38 -15 76h-2q-49 -96 -152 -96q-75 0 -119 41.5t-44 112.5q0 54 23.5 86.5t58.5 42.5t75.5 15t75.5 6.5t58.5 14.5t23.5 41q0 58 -91 58q-33 0 -58.5 -15t-25.5 -45h-112q0 76 56.5 111t138.5 35q106 0 158 -50t52 -158v-186q0 -39 5.5 -57.5t20.5 -32.5
zM237 66q17 0 31.5 3.5t25.5 8.5t19 15.5t13.5 17.5t9 23t5.5 24t3 26.5t1 25.5v27v25h-2q-11 -21 -34.5 -33t-49 -16.5t-49 -11t-39 -22t-15.5 -43.5q0 -70 81 -70zM379 667h56q-6 -46 -34 -81.5t-71 -35.5q-29 0 -78 19q-51 19 -68 19q-35 0 -46 -44h-56q6 46 34 81.5
t71 35.5q29 0 78 -19q51 -19 68 -19q35 0 46 44z" />
    <glyph glyph-name="adieresis" unicode="&#xe4;" horiz-adv-x="519" 
d="M489 0h-127q-18 38 -15 76h-2q-49 -96 -152 -96q-75 0 -119 41.5t-44 112.5q0 54 23.5 86.5t58.5 42.5t75.5 15t75.5 6.5t58.5 14.5t23.5 41q0 58 -91 58q-33 0 -58.5 -15t-25.5 -45h-112q0 76 56.5 111t138.5 35q106 0 158 -50t52 -158v-186q0 -39 5.5 -57.5t20.5 -32.5
zM237 66q17 0 31.5 3.5t25.5 8.5t19 15.5t13.5 17.5t9 23t5.5 24t3 26.5t1 25.5v27v25h-2q-11 -21 -34.5 -33t-49 -16.5t-49 -11t-39 -22t-15.5 -43.5q0 -70 81 -70zM228 549h-112v108h112v-108zM403 549h-112v108h112v-108z" />
    <glyph glyph-name="aring" unicode="&#xe5;" horiz-adv-x="519" 
d="M489 0h-127q-18 38 -15 76h-2q-49 -96 -152 -96q-75 0 -119 41.5t-44 112.5q0 54 23.5 86.5t58.5 42.5t75.5 15t75.5 6.5t58.5 14.5t23.5 41q0 58 -91 58q-33 0 -58.5 -15t-25.5 -45h-112q0 76 56.5 111t138.5 35q106 0 158 -50t52 -158v-186q0 -39 5.5 -57.5t20.5 -32.5
zM237 66q17 0 31.5 3.5t25.5 8.5t19 15.5t13.5 17.5t9 23t5.5 24t3 26.5t1 25.5v27v25h-2q-11 -21 -34.5 -33t-49 -16.5t-49 -11t-39 -22t-15.5 -43.5q0 -70 81 -70zM259 521q-43 0 -73 29.5t-30 73.5q0 43 30 73t73 30t73 -30t30 -73t-30 -73t-73 -30zM259 683
q-25 0 -42 -17.5t-17 -41.5q0 -25 17 -42t42 -17t42 17t17 42q0 24 -17 41.5t-42 17.5z" />
    <glyph glyph-name="ae" unicode="&#xe6;" horiz-adv-x="833" 
d="M156 136q0 -70 86 -70q42 0 73 31t31 83v82h-3q-9 -22 -40.5 -35t-63.5 -18.5t-57.5 -23.5t-25.5 -49zM166 338h-112q13 86 62.5 116t144.5 30q58 0 93.5 -14t62.5 -54q55 68 159 68q120 0 171.5 -76.5t47.5 -201.5h-335q-1 -58 28 -99t90 -41q71 0 91 75h118
q-43 -161 -218 -161q-154 0 -195 122h-1l-2 -2q-19 -53 -69 -86.5t-109 -33.5q-68 0 -115.5 38t-47.5 106t32 103.5t78 43t92 9.5t78 15t32 47q0 31 -25 43.5t-76 12.5q-35 0 -55 -18t-20 -42zM464 292h205q-1 53 -23.5 79.5t-73.5 26.5q-45 0 -70 -27t-38 -79z" />
    <glyph glyph-name="ccedilla" unicode="&#xe7;" horiz-adv-x="519" 
d="M497 304h-117q-11 45 -34 68q-26 26 -69 26q-52 0 -82.5 -42t-30.5 -124q0 -81 31 -123.5t82 -42.5q40 0 63 20.5t37 63.5h118q-34 -162 -199 -169l-30 -39l2 -2q12 4 24 4q37 0 64 -20.5t27 -55.5q0 -49 -37.5 -71.5t-90.5 -22.5q-47 0 -97 26l18 40q40 -16 65 -16
q60 0 60 40q0 36 -49 36q-10 0 -35 -7l-22 19l53 70q-105 8 -157.5 73t-52.5 177q0 121 59.5 186.5t180.5 65.5q95 0 148.5 -44.5t70.5 -135.5z" />
    <glyph glyph-name="egrave" unicode="&#xe8;" horiz-adv-x="537" 
d="M491 206h-335q0 -58 27 -99t82 -41q39 0 66.5 21.5t33.5 59.5h118q-19 -88 -77.5 -127.5t-133.5 -39.5q-115 0 -174.5 71t-59.5 181q0 109 58.5 180.5t168.5 71.5q65 0 111 -21.5t71 -61t35.5 -88t8.5 -107.5zM161 292h215q-9 106 -102 106q-53 0 -78.5 -26.5
t-34.5 -79.5zM128 681h135l90 -144h-82z" />
    <glyph glyph-name="eacute" unicode="&#xe9;" horiz-adv-x="537" 
d="M491 206h-335q0 -58 27 -99t82 -41q39 0 66.5 21.5t33.5 59.5h118q-19 -88 -77.5 -127.5t-133.5 -39.5q-115 0 -174.5 71t-59.5 181q0 109 58.5 180.5t168.5 71.5q65 0 111 -21.5t71 -61t35.5 -88t8.5 -107.5zM161 292h215q-9 106 -102 106q-53 0 -78.5 -26.5
t-34.5 -79.5zM427 681l-143 -144h-82l90 144h135z" />
    <glyph glyph-name="ecircumflex" unicode="&#xea;" horiz-adv-x="537" 
d="M491 206h-335q0 -58 27 -99t82 -41q39 0 66.5 21.5t33.5 59.5h118q-19 -88 -77.5 -127.5t-133.5 -39.5q-115 0 -174.5 71t-59.5 181q0 109 58.5 180.5t168.5 71.5q65 0 111 -21.5t71 -61t35.5 -88t8.5 -107.5zM161 292h215q-9 106 -102 106q-53 0 -78.5 -26.5
t-34.5 -79.5zM207 537h-92l107 144h111l108 -144h-93l-70 89z" />
    <glyph glyph-name="edieresis" unicode="&#xeb;" horiz-adv-x="537" 
d="M491 206h-335q0 -58 27 -99t82 -41q39 0 66.5 21.5t33.5 59.5h118q-19 -88 -77.5 -127.5t-133.5 -39.5q-115 0 -174.5 71t-59.5 181q0 109 58.5 180.5t168.5 71.5q65 0 111 -21.5t71 -61t35.5 -88t8.5 -107.5zM161 292h215q-9 106 -102 106q-53 0 -78.5 -26.5
t-34.5 -79.5zM246 549h-112v108h112v-108zM421 549h-112v108h112v-108z" />
    <glyph glyph-name="igrave" unicode="&#xec;" horiz-adv-x="259" 
d="M70 0v464h118v-464h-118zM-20 681h135l90 -144h-82z" />
    <glyph glyph-name="iacute" unicode="&#xed;" horiz-adv-x="259" 
d="M70 0v464h118v-464h-118zM279 681l-143 -144h-82l90 144h135z" />
    <glyph glyph-name="icircumflex" unicode="&#xee;" horiz-adv-x="259" 
d="M70 0v464h118v-464h-118zM59 537h-92l107 144h111l108 -144h-93l-70 89z" />
    <glyph glyph-name="idieresis" unicode="&#xef;" horiz-adv-x="259" 
d="M70 0v464h118v-464h-118zM98 549h-112v108h112v-108zM273 549h-112v108h112v-108z" />
    <glyph glyph-name="eth" unicode="&#xf0;" 
d="M277 66q52 0 83.5 42.5t31.5 123.5q0 83 -31.5 125.5t-83.5 40.5q-51 2 -82 -40.5t-31 -125.5q0 -81 31 -123.5t82 -42.5zM127 683l90 31q32 -22 69 -56l113 56l41 -65l-96 -48q174 -180 174 -349q0 -122 -63 -197t-177 -75q-120 0 -179.5 66t-60.5 186q1 121 60 186.5
t180 65.5q18 0 31 -3q-19 39 -52 76l-103 -51l-41 65l91 46q-29 33 -77 66z" />
    <glyph glyph-name="ntilde" unicode="&#xf1;" 
d="M180 0h-118v464h114v-76h2q21 47 63.5 71.5t96.5 24.5q156 0 156 -178v-306h-118v294q0 104 -89 104q-49 0 -78 -35t-29 -92v-271zM407 667h56q-6 -46 -34 -81.5t-71 -35.5q-29 0 -78 19q-51 19 -68 19q-35 0 -46 -44h-56q6 46 34 81.5t71 35.5q29 0 78 -19
q51 -19 68 -19q35 0 46 44z" />
    <glyph glyph-name="ograve" unicode="&#xf2;" 
d="M278 -20q-120 0 -179.5 66t-60.5 186q1 121 60 186.5t180 65.5q111 0 175.5 -68t64.5 -184q0 -115 -64.5 -183.5t-175.5 -68.5zM277 66q53 0 84 42t31 124q0 83 -31 125.5t-84 40.5q-51 2 -82 -40.5t-31 -125.5q0 -81 31 -123.5t82 -42.5zM129 681h135l90 -144h-82z" />
    <glyph glyph-name="oacute" unicode="&#xf3;" 
d="M278 -20q-120 0 -179.5 66t-60.5 186q1 121 60 186.5t180 65.5q111 0 175.5 -68t64.5 -184q0 -115 -64.5 -183.5t-175.5 -68.5zM277 66q53 0 84 42t31 124q0 83 -31 125.5t-84 40.5q-51 2 -82 -40.5t-31 -125.5q0 -81 31 -123.5t82 -42.5zM428 681l-143 -144h-82l90 144
h135z" />
    <glyph glyph-name="ocircumflex" unicode="&#xf4;" 
d="M278 -20q-120 0 -179.5 66t-60.5 186q1 121 60 186.5t180 65.5q111 0 175.5 -68t64.5 -184q0 -115 -64.5 -183.5t-175.5 -68.5zM277 66q53 0 84 42t31 124q0 83 -31 125.5t-84 40.5q-51 2 -82 -40.5t-31 -125.5q0 -81 31 -123.5t82 -42.5zM208 537h-92l107 144h111
l108 -144h-93l-70 89z" />
    <glyph glyph-name="otilde" unicode="&#xf5;" 
d="M278 -20q-120 0 -179.5 66t-60.5 186q1 121 60 186.5t180 65.5q111 0 175.5 -68t64.5 -184q0 -115 -64.5 -183.5t-175.5 -68.5zM277 66q53 0 84 42t31 124q0 83 -31 125.5t-84 40.5q-51 2 -82 -40.5t-31 -125.5q0 -81 31 -123.5t82 -42.5zM398 667h56q-6 -46 -34 -81.5
t-71 -35.5q-29 0 -78 19q-51 19 -68 19q-35 0 -46 -44h-56q6 46 34 81.5t71 35.5q29 0 78 -19q51 -19 68 -19q35 0 46 44z" />
    <glyph glyph-name="odieresis" unicode="&#xf6;" 
d="M278 -20q-120 0 -179.5 66t-60.5 186q1 121 60 186.5t180 65.5q111 0 175.5 -68t64.5 -184q0 -115 -64.5 -183.5t-175.5 -68.5zM277 66q53 0 84 42t31 124q0 83 -31 125.5t-84 40.5q-51 2 -82 -40.5t-31 -125.5q0 -81 31 -123.5t82 -42.5zM247 549h-112v108h112v-108z
M422 549h-112v108h112v-108z" />
    <glyph glyph-name="divide" unicode="&#xf7;" horiz-adv-x="600" 
d="M530 194h-460v76h460v-76zM366 422q0 -27 -19.5 -46.5t-46.5 -19.5t-46.5 19.5t-19.5 46.5t19.5 46.5t46.5 19.5t46.5 -19.5t19.5 -46.5zM366 42q0 -27 -19.5 -46.5t-46.5 -19.5t-46.5 19.5t-19.5 46.5t19.5 46.5t46.5 19.5t46.5 -19.5t19.5 -46.5z" />
    <glyph glyph-name="oslash" unicode="&#xf8;" 
d="M382 312l-186 -204q30 -42 81 -42q53 0 84 42t31 124q0 43 -10 80zM174 155l185 204q-30 41 -82 39q-51 2 -82 -40.5t-31 -125.5q0 -44 10 -77zM70 -31l-36 32l53 59q-49 62 -49 172q1 121 60 186.5t180 65.5q91 0 152 -47l56 61l36 -32l-57 -63q53 -65 53 -171
q0 -115 -64.5 -183.5t-175.5 -68.5q-98 0 -157 45z" />
    <glyph glyph-name="ugrave" unicode="&#xf9;" 
d="M376 464h118v-464h-114v76h-2q-21 -47 -63.5 -71.5t-96.5 -24.5q-156 0 -156 178v306h118v-294q0 -104 89 -104q49 0 78 35t29 92v271zM129 681h135l90 -144h-82z" />
    <glyph glyph-name="uacute" unicode="&#xfa;" 
d="M376 464h118v-464h-114v76h-2q-21 -47 -63.5 -71.5t-96.5 -24.5q-156 0 -156 178v306h118v-294q0 -104 89 -104q49 0 78 35t29 92v271zM428 681l-143 -144h-82l90 144h135z" />
    <glyph glyph-name="ucircumflex" unicode="&#xfb;" 
d="M376 464h118v-464h-114v76h-2q-21 -47 -63.5 -71.5t-96.5 -24.5q-156 0 -156 178v306h118v-294q0 -104 89 -104q49 0 78 35t29 92v271zM208 537h-92l107 144h111l108 -144h-93l-70 89z" />
    <glyph glyph-name="udieresis" unicode="&#xfc;" 
d="M376 464h118v-464h-114v76h-2q-21 -47 -63.5 -71.5t-96.5 -24.5q-156 0 -156 178v306h118v-294q0 -104 89 -104q49 0 78 35t29 92v271zM247 549h-112v108h112v-108zM422 549h-112v108h112v-108z" />
    <glyph glyph-name="yacute" unicode="&#xfd;" horiz-adv-x="500" 
d="M371 464h129l-204 -526q-35 -85 -77 -120.5t-128 -35.5q-31 4 -49 5v102q5 -1 46 -1q24 0 42.5 7.5t30 22.5t18 28.5t14.5 33t13 28.5l-206 456h130l130 -315zM400 681l-143 -144h-82l90 144h135z" />
    <glyph glyph-name="thorn" unicode="&#xfe;" 
d="M176 233q0 -27 5.5 -54t17 -53.5t34 -43t53.5 -16.5q49 0 77.5 50.5t28.5 114.5t-28.5 115.5t-77.5 51.5q-40 0 -66 -28.5t-35 -63.5t-9 -73zM62 714h113v-322h2q20 43 62 67.5t90 24.5q69 0 128.5 -68t60.5 -185q0 -60 -17.5 -110t-46 -80t-61 -46t-64.5 -15
q-87 -3 -147 85h-2v-277h-118v926z" />
    <glyph glyph-name="ydieresis" unicode="&#xff;" horiz-adv-x="500" 
d="M371 464h129l-204 -526q-35 -85 -77 -120.5t-128 -35.5q-31 4 -49 5v102q5 -1 46 -1q24 0 42.5 7.5t30 22.5t18 28.5t14.5 33t13 28.5l-206 456h130l130 -315zM219 549h-112v108h112v-108zM394 549h-112v108h112v-108z" />
    <glyph glyph-name="dotlessi" unicode="&#x131;" horiz-adv-x="259" 
d="M70 0v464h118v-464h-118z" />
    <glyph glyph-name="Lslash" unicode="&#x141;" 
d="M540 104v-104h-464v277l-72 -29v104l72 29v333h126v-282l148 59v-104l-148 -59v-224h338z" />
    <glyph glyph-name="lslash" unicode="&#x142;" horiz-adv-x="259" 
d="M70 714h118v-219l61 47v-114l-61 -43v-385h-118v300l-60 -46v106l60 46v308z" />
    <glyph glyph-name="OE" unicode="&#x152;" horiz-adv-x="1000" 
d="M920 425v-104h-270v-217h313v-104h-411q-32 0 -74 -7q-58 -7 -83 -7q-89 0 -160 32t-114 86t-65 120t-22 137q0 96 39.5 180t122.5 139.5t193 55.5q27 0 93 -11q51 -11 70 -11h411v-104h-313v-185h270zM524 154v404q0 64 -101 64q-125 0 -187 -76t-62 -201
q0 -98 63 -171.5t176 -73.5q111 0 111 54z" />
    <glyph glyph-name="oe" unicode="&#x153;" horiz-adv-x="889" 
d="M277 66q53 0 84 42t31 124q0 83 -31 125.5t-84 40.5q-51 2 -82 -40.5t-31 -125.5q0 -81 31 -123.5t82 -42.5zM851 206h-336q0 -55 30 -97.5t80 -42.5q39 0 66.5 21.5t33.5 59.5h118q-9 -74 -70 -120.5t-137 -46.5q-59 0 -107 22.5t-74 63.5q-61 -86 -177 -86
q-120 0 -179.5 66t-60.5 186q1 121 60 186.5t180 65.5q125 0 179 -86q44 86 167 86q126 0 176 -67t51 -211zM517 292h216q-9 106 -108 106q-44 0 -74 -28t-34 -78z" />
    <glyph glyph-name="Scaron" unicode="&#x160;" horiz-adv-x="630" 
d="M16 234h132q0 -72 47 -109t120 -39q61 2 109 28.5t48 82.5q0 35 -24 57.5t-62.5 33.5t-85 19.5t-93 21t-85 32.5t-62.5 60t-24 97q0 108 79 163t193 55q118 0 199 -57.5t89 -187.5h-132q0 71 -41.5 104t-109.5 33q-72 0 -108.5 -27t-36.5 -70q0 -32 24 -52t62.5 -29.5
t85 -18t93 -21.5t85 -34t62.5 -62.5t24 -100.5q0 -114 -83.5 -174.5t-212.5 -60.5q-132 0 -211 63.5t-81 192.5zM153 908h92l71 -89l70 89h93l-108 -144h-111z" />
    <glyph glyph-name="scaron" unicode="&#x161;" horiz-adv-x="500" 
d="M30 138h118q0 -72 99 -72q44 0 71 15.5t27 40.5q0 22 -22 35.5t-55 18.5t-72 14.5t-72 22.5t-55 44t-22 78q0 73 64.5 111t143.5 38q83 0 140 -40.5t56 -115.5h-108q0 33 -25 51.5t-65 18.5q-34 0 -61 -14t-27 -44q0 -24 30.5 -36t74.5 -18t88 -17t74.5 -44t30.5 -89
q0 -44 -20.5 -76t-53.5 -48.5t-66.5 -24t-67.5 -7.5q-96 0 -157 38t-68 118v2zM88 681h92l71 -89l70 89h93l-108 -144h-111z" />
    <glyph glyph-name="Ydieresis" unicode="&#x178;" horiz-adv-x="593" 
d="M236 0v259l-261 455h144l181 -331l174 331h144l-256 -455v-259h-126zM265 776h-112v108h112v-108zM440 776h-112v108h112v-108z" />
    <glyph glyph-name="Zcaron" unicode="&#x17d;" horiz-adv-x="630" 
d="M612 0h-608v104l455 506h-421v104h585v-104l-458 -506h447v-104zM153 908h92l71 -89l70 89h93l-108 -144h-111z" />
    <glyph glyph-name="zcaron" unicode="&#x17e;" horiz-adv-x="463" 
d="M44 370v94h380v-92l-247 -278h251v-94h-393v97l240 273h-231zM69 681h92l71 -89l70 89h93l-108 -144h-111z" />
    <glyph glyph-name="florin" unicode="&#x192;" 
d="M333 365h111l-10 -92h-110l-39 -320q-12 -95 -55 -133t-129 -38q-10 0 -20.5 0.5t-24 1.5t-20.5 1l11 94q8 -1 49 -1q27 0 43.5 13t21.5 29t8 41l37 312h-111l10 92h114l17 145q8 92 57 135t141 43q8 0 23.5 -1.5t23.5 -1.5l-9 -90q-6 0 -19 0.5t-19 0.5q-44 0 -62 -24.5
t-22 -72.5z" />
    <glyph glyph-name="circumflex" unicode="&#x2c6;" horiz-adv-x="259" 
d="M59 537h-92l107 144h111l108 -144h-93l-70 89z" />
    <glyph glyph-name="caron" unicode="&#x2c7;" horiz-adv-x="259" 
d="M-33 681h92l71 -89l70 89h93l-108 -144h-111z" />
    <glyph glyph-name="breve" unicode="&#x2d8;" horiz-adv-x="259" 
d="M-28 683h57q10 -43 36 -58.5t68 -15.5t68 15.5t36 58.5h57q-14 -141 -161 -141t-161 141z" />
    <glyph glyph-name="dotaccent" unicode="&#x2d9;" horiz-adv-x="259" 
d="M186 549h-112v108h112v-108z" />
    <glyph glyph-name="ring" unicode="&#x2da;" horiz-adv-x="259" 
d="M129 521q-43 0 -73 29.5t-30 73.5q0 43 30 73t73 30t73 -30t30 -73t-30 -73t-73 -30zM129 683q-25 0 -42 -17.5t-17 -41.5q0 -25 17 -42t42 -17t42 17t17 42q0 24 -17 41.5t-42 17.5z" />
    <glyph glyph-name="ogonek" unicode="&#x2db;" horiz-adv-x="259" 
d="M255 21v-14q-143 -49 -143 -115q0 -50 53 -50q43 0 98 35l17 -35q-88 -60 -148 -60q-102 0 -102 92q0 25 10.5 45.5t31.5 35.5t40.5 25.5t51 19t47.5 12t44 9.5z" />
    <glyph glyph-name="tilde" unicode="&#x2dc;" horiz-adv-x="259" 
d="M249 667h56q-6 -46 -34 -81.5t-71 -35.5q-29 0 -78 19q-51 19 -68 19q-35 0 -46 -44h-56q6 46 34 81.5t71 35.5q29 0 78 -19q51 -19 68 -19q35 0 46 44z" />
    <glyph glyph-name="hungarumlaut" unicode="&#x2dd;" horiz-adv-x="259" 
d="M-52 537l51 144h136l-105 -144h-82zM111 537l90 144h135l-143 -144h-82z" />
    <glyph glyph-name="endash" unicode="&#x2013;" horiz-adv-x="500" 
d="M0 182v100h500v-100h-500z" />
    <glyph glyph-name="emdash" unicode="&#x2014;" horiz-adv-x="1000" 
d="M1000 182h-1000v100h1000v-100z" />
    <glyph glyph-name="quoteleft" unicode="&#x2018;" horiz-adv-x="278" 
d="M198 471h-118v126q3 57 41 117h60q-45 -45 -48 -117h65v-126z" />
    <glyph glyph-name="quoteright" unicode="&#x2019;" horiz-adv-x="278" 
d="M80 714h118v-126q-3 -57 -41 -117h-60q45 45 48 117h-65v126z" />
    <glyph glyph-name="quotesinglbase" unicode="&#x201a;" horiz-adv-x="278" 
d="M80 126h118v-126q-3 -57 -41 -117h-60q45 45 48 117h-65v126z" />
    <glyph glyph-name="quotedblleft" unicode="&#x201c;" horiz-adv-x="463" 
d="M383 471h-118v126q3 57 41 117h60q-45 -45 -48 -117h65v-126zM197 471h-118v126q3 57 41 117h60q-45 -45 -48 -117h65v-126z" />
    <glyph glyph-name="quotedblright" unicode="&#x201d;" horiz-adv-x="463" 
d="M80 714h118v-126q-3 -57 -41 -117h-60q45 45 48 117h-65v126zM266 714h118v-126q-3 -57 -41 -117h-60q45 45 48 117h-65v126z" />
    <glyph glyph-name="quotedblbase" unicode="&#x201e;" horiz-adv-x="463" 
d="M80 126h118v-126q-3 -57 -41 -117h-60q45 45 48 117h-65v126zM266 126h118v-126q-3 -57 -41 -117h-60q45 45 48 117h-65v126z" />
    <glyph glyph-name="dagger" unicode="&#x2020;" 
d="M218 500v170h118v-170h149v-100h-149v-400h-118v400h-147v100h147z" />
    <glyph glyph-name="daggerdbl" unicode="&#x2021;" 
d="M336 670v-128h149v-100h-149v-218h149v-100h-149v-124h-118v124h-147v100h147v218h-147v100h147v128h118z" />
    <glyph glyph-name="bullet" unicode="&#x2022;" horiz-adv-x="500" 
d="M72 357q0 75 51.5 126.5t127.5 51.5q75 0 126.5 -51.5t51.5 -126.5q0 -76 -51.5 -127.5t-126.5 -51.5q-77 0 -128 51t-51 128z" />
    <glyph glyph-name="ellipsis" unicode="&#x2026;" horiz-adv-x="1000" 
d="M226 126v-126h-118v126h118zM559 126v-126h-118v126h118zM892 126v-126h-118v126h118z" />
    <glyph glyph-name="perthousand" unicode="&#x2030;" horiz-adv-x="1000" 
d="M506 703l53 -29l-396 -695l-54 23zM148 622q-56 0 -56 -117t56 -117t56 117t-56 117zM148 688q71 0 107.5 -53t36.5 -130t-36.5 -130t-107.5 -53t-107.5 53t-36.5 130t36.5 130t107.5 53zM527 290q-56 0 -56 -117t56 -117t56 117t-56 117zM527 356q71 0 107.5 -53
t36.5 -130t-36.5 -130t-107.5 -53t-107.5 53t-36.5 130t36.5 130t107.5 53zM859 290q-56 0 -56 -117t56 -117t56 117t-56 117zM859 356q71 0 107.5 -53t36.5 -130t-36.5 -130t-107.5 -53t-107.5 53t-36.5 130t36.5 130t107.5 53z" />
    <glyph glyph-name="guilsinglleft" unicode="&#x2039;" horiz-adv-x="278" 
d="M140 116l-105 116l105 115h104l-110 -115l110 -116h-104z" />
    <glyph glyph-name="guilsinglright" unicode="&#x203a;" horiz-adv-x="278" 
d="M243 232l-105 -116h-104l110 114l-110 117h104z" />
    <glyph glyph-name="fraction" unicode="&#x2044;" horiz-adv-x="167" 
d="M-167 -18l422 706h79l-422 -706h-79z" />
    <glyph glyph-name="fraction" unicode="&#x2215;" horiz-adv-x="167" 
d="M-167 -18l422 706h79l-422 -706h-79z" />
    <glyph glyph-name="Euro" unicode="&#x20ac;" 
d="M513 653v-118q-46 44 -140 44q-131 0 -152 -121h260l-32 -92h-241q-1 -7 -1 -26q0 -24 1 -31h220l-32 -92h-175q22 -126 153 -126q91 0 139 44v-119q-16 -13 -57.5 -23t-98.5 -10q-219 0 -257 234h-81l32 92h39q-1 7 -1 31q0 19 1 26h-71l32 92h48q42 230 258 230
q102 0 156 -35z" />
    <glyph glyph-name="trademark" unicode="&#x2122;" horiz-adv-x="990" 
d="M390 714v-64h-125v-348h-82v348h-125v64h332zM591 714l113 -292l112 292h116v-412h-76v326l-2 -2l-123 -324h-56l-123 326h-2v-326h-76v412h117z" />
    <glyph glyph-name="minus" unicode="&#x2212;" horiz-adv-x="600" 
d="M530 194h-460v76h460v-76z" />
    <glyph glyph-name="fi" unicode="&#xfb01;" horiz-adv-x="537" 
d="M196 464h112v-94h-112v-370h-118v370h-68v94h68v116q0 77 37 105.5t139 28.5q15 0 54 -3v-100q-16 3 -35 3q-44 0 -60.5 -16t-16.5 -58v-76zM359 464h118v-464h-118v464zM477 558h-118v120h118v-120z" />
    <glyph glyph-name="fl" unicode="&#xfb02;" horiz-adv-x="537" 
d="M359 714h118v-714h-118v714zM196 464h112v-94h-112v-370h-118v370h-68v94h68v116q0 77 37 105.5t139 28.5q15 0 54 -3v-100q-16 3 -35 3q-44 0 -60.5 -16t-16.5 -58v-76z" />
    </font>
</defs>
</svg>
