<?xml version="1.0" encoding="utf-8"?>
<!-- Generator: Adobe Illustrator 16.0.0, SVG Export Plug-In . SVG Version: 6.00 Build 0)  -->
<!DOCTYPE svg PUBLIC "-//W3C//DTD SVG 1.1//EN" "http://www.w3.org/Graphics/SVG/1.1/DTD/svg11.dtd">
<svg version="1.1" id="Layer_1" xmlns="http://www.w3.org/2000/svg" xmlns:xlink="http://www.w3.org/1999/xlink" x="0px" y="0px"
	 width="192.92px" height="9.93px" viewBox="0 0 192.92 9.93" enable-background="new 0 0 192.92 9.93" xml:space="preserve">
<g>
	<path fill="#FFFFFF" d="M187.83,2.392l0.885,2.931h-1.77L187.83,2.392z M189.309,7.258l0.802,2.475h2.71l-3.442-9.539h-3.042
		l-3.442,9.539h2.641l0.802-2.475H189.309z M176.189,0c-2.586,0-4.715,1.714-4.715,5.031c0,3.236,2.061,4.894,4.618,4.894
		c2.393,0,4.147-1.176,4.382-3.471l0.015-0.137H178l-0.028,0.137c-0.207,1.051-0.829,1.646-1.797,1.646
		c-1.105,0-2.102-0.816-2.102-3.221c0-2.06,0.898-3.055,2.088-3.055c1.009,0,1.631,0.484,1.839,1.507l0.027,0.138h2.488
		l-0.014-0.138C180.309,1.452,178.913,0,176.189,0 M167.631,0.193h-2.489v9.539h2.489V0.193z M155.852,4.313V2.129h0.969
		c0.262,0,0.483,0,0.662,0.014c0.637,0.055,1.148,0.276,1.148,1.078c0,0.802-0.581,1.023-1.217,1.079
		c-0.179,0.013-0.401,0.013-0.663,0.013H155.852z M160.801,7.41c-0.138-1.146-0.497-1.88-1.493-2.239
		c1.272-0.374,1.922-1.176,1.922-2.378c0-1.687-1.202-2.365-2.585-2.53c-0.512-0.056-0.898-0.07-1.492-0.07h-3.789v9.539h2.488
		V6.111h0.554c0.276,0,0.512,0,0.788,0.012c0.636,0.043,1.051,0.65,1.175,1.701c0.083,0.678,0.221,1.23,0.442,1.908h2.709
		C161.147,9.166,160.926,8.488,160.801,7.41 M145,2.129h4.687V0.193h-7.175v9.539H145V5.917h4.271V3.982H145V2.129z M134.271,2.392
		l0.886,2.931h-1.77L134.271,2.392z M135.751,7.258l0.801,2.475h2.71l-3.441-9.539h-3.042l-3.442,9.539h2.64l0.803-2.475H135.751z
		 M117.377,2.129h4.687V0.193h-7.175v9.539h2.488V5.917h4.271V3.982h-4.271V2.129z M106.166,8.102c-1.438,0-2.336-1.119-2.336-3.138
		c0-2.032,0.897-3.138,2.336-3.138c1.438,0,2.337,1.106,2.337,3.138C108.502,6.982,107.603,8.102,106.166,8.102 M106.166,0
		c-2.972,0-4.88,1.894-4.88,4.963c0,3.056,1.908,4.962,4.88,4.962s4.88-1.906,4.88-4.962C111.045,1.894,109.137,0,106.166,0
		 M93.681,2.129V0.193H85v1.936h3.097v7.603h2.488V2.129H93.681z M81.709,9.732V0.193H79.22v4.079c0,0.553,0.014,1.535,0.083,2.501
		l-3.622-6.58h-3.097v9.539h2.489V5.793c0-0.553,0-1.397-0.083-2.364l3.47,6.303H81.709z M64.345,2.392l0.884,2.931H63.46
		L64.345,2.392z M65.824,7.258l0.802,2.475h2.709l-3.442-9.539h-3.042l-3.442,9.539h2.641l0.801-2.475H65.824z M56.257,0.193h-2.489
		v9.539h2.489V0.193z M45.474,4.645V6.58h1.853c-0.346,1.051-0.982,1.521-1.949,1.521c-1.175,0-2.212-0.816-2.212-3.221
		c0-2.06,1.009-3.055,2.225-3.055c1.01,0,1.632,0.484,1.839,1.507l0.028,0.138h2.488l-0.013-0.138C49.539,1.452,48.143,0,45.418,0
		c-2.613,0-4.853,1.714-4.853,5.031c0,3.208,1.784,4.894,4.328,4.894c1.009,0,1.659-0.152,2.198-0.607l0.415-1.051l0.235,1.465
		h1.935V4.645H45.474z M32.409,7.797h-4.825V5.917h4.41V3.982h-4.41V2.129h4.687V0.193h-7.176v9.539h7.314V7.797z M20.894,0.193
		h-2.489v3.899h-3.816V0.193h-2.488v9.539h2.488V6.027h3.816v3.705h2.489V0.193z M8.782,2.129V0.193H0.101v1.936h3.097v7.603h2.488
		V2.129H8.782z"/>
</g>
</svg>
