<?xml version="1.0" encoding="utf-8"?>
<!-- Generator: Adobe Illustrator 16.0.0, SVG Export Plug-In . SVG Version: 6.00 Build 0)  -->
<!DOCTYPE svg PUBLIC "-//W3C//DTD SVG 1.1//EN" "http://www.w3.org/Graphics/SVG/1.1/DTD/svg11.dtd">
<svg version="1.1" id="Layer_1" xmlns="http://www.w3.org/2000/svg" xmlns:xlink="http://www.w3.org/1999/xlink" x="0px" y="0px"
	 width="191.07px" height="21.29px" viewBox="0 0 191.07 21.29" enable-background="new 0 0 191.07 21.29" xml:space="preserve">
<g>
	<path fill="#FFFFFF" d="M191.07,20.67V16.57h-9.436V12.3h7.751V8.201h-7.751V4.718h9.436v-4.1h-15.166V20.67H191.07z
		 M173.097,20.67V16.57h-9.493V0.618h-5.73V20.67H173.097z M139.001,20.67l1.376-3.96h7.639l1.348,3.96h6.151L147.79,0.618h-7.076
		l-7.92,20.052H139.001z M144.224,5.617h0.057l2.359,7.217h-4.887L144.224,5.617z M130.687,6.46C130.379,1.741,126.193,0,122.064,0
		c-7.583,0-9.633,3.482-9.633,6.46c0,8.789,13.144,4.606,13.144,9.099c0,1.517-1.124,2.359-3.708,2.359
		c-1.853,0-4.184-0.225-4.184-3.314h-5.73c0.169,5.729,5.28,6.685,9.69,6.685c6.094,0,9.661-2.472,9.661-7.078
		c0-7.75-13.145-4.689-13.145-8.453c0-1.938,1.713-2.387,3.343-2.387c2.135,0,3.285,0.983,3.454,3.09H130.687z M109.96,20.67V16.57
		h-9.438V12.3h7.752V8.201h-7.752V4.718h9.438v-4.1H94.793V20.67H109.96z M91.984,20.67V16.57h-9.493V0.618h-5.729V20.67H91.984z
		 M57.13,10.644c0-4.437,1.994-6.768,5.14-6.768c3.117,0,5.111,2.331,5.111,6.768c0,4.438-1.994,6.769-5.111,6.769
		C59.125,17.413,57.13,15.082,57.13,10.644 M73.673,10.644C73.673,3.595,68.787,0,62.271,0c-6.544,0-11.431,3.595-11.431,10.644
		c0,7.05,4.887,10.645,11.431,10.645C68.787,21.289,73.673,17.694,73.673,10.644 M42.188,20.67h5.73V0.618h-5.73v7.583h-7.19V0.618
		H29.27V20.67h5.729V12.3h7.19V20.67z M16.209,20.67h6.151l4.381-20.052h-5.168l-2.471,14.071h-0.056L16.575,0.618h-6.319
		L7.7,14.689H7.644L5.369,0.618H0.003L4.33,20.67h6.403l2.612-14.042H13.4L16.209,20.67z"/>
</g>
</svg>
